<mxfile host="app.diagrams.net" agent="Mozilla/5.0 (Windows NT 10.0; Win64; x64) AppleWebKit/537.36 (KHTML, like Gecko) Chrome/131.0.0.0 Safari/537.36" version="26.0.5">
  <diagram name="Page-1" id="htw7n_-E01eUsqG7UNHX">
    <mxGraphModel dx="1193" dy="698" grid="1" gridSize="10" guides="1" tooltips="1" connect="1" arrows="1" fold="1" page="1" pageScale="1" pageWidth="827" pageHeight="1169" math="0" shadow="0">
      <root>
        <mxCell id="0" />
        <mxCell id="1" parent="0" />
        <mxCell id="elsuv7XGZq4n1BTtMGS8-2" value="&lt;b&gt;KobrA-Realization Models&lt;/b&gt;" style="text;fontSize=16;verticalAlign=middle;strokeColor=none;fillColor=none;whiteSpace=wrap;html=1;" parent="1" vertex="1">
          <mxGeometry x="40" y="40" width="346" height="30" as="geometry" />
        </mxCell>
        <mxCell id="elsuv7XGZq4n1BTtMGS8-3" value="" style="dashed=0;shape=line;strokeWidth=2;noLabel=1;strokeColor=#0C8CF2;opacity=50;" parent="1" vertex="1">
          <mxGeometry x="40" y="65" width="346" height="10" as="geometry" />
        </mxCell>
        <mxCell id="elsuv7XGZq4n1BTtMGS8-28" value="&lt;b style=&quot;color: rgb(255, 255, 255); font-size: 14px;&quot;&gt;PowerSupplyingPart&lt;/b&gt;" style="rounded=1;whiteSpace=wrap;html=1;arcSize=50;strokeColor=none;fillColor=#0C8CF2;strokeWidth=2;dashed=0;opacity=50;align=center;verticalAlign=middle;fontFamily=Helvetica;fontSize=12;fontColor=default;gradientColor=none;" parent="1" vertex="1">
          <mxGeometry x="40" y="80" width="170" height="40" as="geometry" />
        </mxCell>
        <mxCell id="elsuv7XGZq4n1BTtMGS8-71" value="" style="rounded=1;whiteSpace=wrap;html=1;strokeColor=#475E75;fillColor=#F5F6F7;arcSize=24;absoluteArcSize=1;imageWidth=64;imageHeight=64;strokeWidth=1.5;" parent="1" vertex="1">
          <mxGeometry x="40" y="140" width="740" height="380" as="geometry" />
        </mxCell>
        <mxCell id="elsuv7XGZq4n1BTtMGS8-72" style="edgeStyle=orthogonalEdgeStyle;rounded=0;orthogonalLoop=1;jettySize=auto;html=1;entryX=0;entryY=0.5;entryDx=0;entryDy=0;endArrow=none;endFill=0;endSize=16;exitX=1;exitY=0.5;exitDx=0;exitDy=0;" parent="1" source="elsuv7XGZq4n1BTtMGS8-102" target="elsuv7XGZq4n1BTtMGS8-100" edge="1">
          <mxGeometry relative="1" as="geometry">
            <mxPoint x="335.9999999999998" y="535" as="sourcePoint" />
            <mxPoint x="440" y="535" as="targetPoint" />
          </mxGeometry>
        </mxCell>
        <mxCell id="elsuv7XGZq4n1BTtMGS8-73" value="1" style="edgeLabel;html=1;align=center;verticalAlign=middle;resizable=0;points=[];labelBackgroundColor=none;" parent="elsuv7XGZq4n1BTtMGS8-72" vertex="1" connectable="0">
          <mxGeometry x="0.7313" y="-1" relative="1" as="geometry">
            <mxPoint x="4" y="-11" as="offset" />
          </mxGeometry>
        </mxCell>
        <mxCell id="elsuv7XGZq4n1BTtMGS8-74" value="2" style="edgeLabel;html=1;align=center;verticalAlign=middle;resizable=0;points=[];labelBackgroundColor=none;" parent="elsuv7XGZq4n1BTtMGS8-72" vertex="1" connectable="0">
          <mxGeometry x="-0.575" relative="1" as="geometry">
            <mxPoint x="-8" y="-10" as="offset" />
          </mxGeometry>
        </mxCell>
        <mxCell id="elsuv7XGZq4n1BTtMGS8-75" value="&lt;b&gt;Structural Model&lt;/b&gt;" style="rounded=1;whiteSpace=wrap;html=1;strokeWidth=1.5;arcSize=16;perimeterSpacing=0;absoluteArcSize=1;" parent="1" vertex="1">
          <mxGeometry x="50" y="160" width="130" height="30" as="geometry" />
        </mxCell>
        <mxCell id="elsuv7XGZq4n1BTtMGS8-76" value="" style="group;glass=0;shadow=0;" parent="1" vertex="1" connectable="0">
          <mxGeometry x="640" y="170" width="130" height="90" as="geometry" />
        </mxCell>
        <mxCell id="elsuv7XGZq4n1BTtMGS8-77" value="" style="shape=parallelogram;html=1;strokeWidth=1;perimeter=parallelogramPerimeter;whiteSpace=wrap;rounded=1;arcSize=12;size=0.23;fillColor=none;shadow=0;" parent="elsuv7XGZq4n1BTtMGS8-76" vertex="1">
          <mxGeometry x="92.85714285714286" y="24" width="37.142857142857146" height="12" as="geometry" />
        </mxCell>
        <mxCell id="elsuv7XGZq4n1BTtMGS8-78" value="" style="shape=parallelogram;html=1;strokeWidth=1;perimeter=parallelogramPerimeter;whiteSpace=wrap;rounded=1;arcSize=12;size=0.23;shadow=0;" parent="elsuv7XGZq4n1BTtMGS8-76" vertex="1">
          <mxGeometry x="49.523809523809526" width="37.142857142857146" height="12" as="geometry" />
        </mxCell>
        <mxCell id="elsuv7XGZq4n1BTtMGS8-79" value="" style="shape=parallelogram;html=1;strokeWidth=1;perimeter=parallelogramPerimeter;whiteSpace=wrap;rounded=1;arcSize=12;size=0.23;shadow=0;" parent="elsuv7XGZq4n1BTtMGS8-76" vertex="1">
          <mxGeometry y="24" width="37.142857142857146" height="12" as="geometry" />
        </mxCell>
        <mxCell id="elsuv7XGZq4n1BTtMGS8-80" value="" style="edgeStyle=isometricEdgeStyle;endArrow=none;html=1;elbow=vertical;rounded=0;entryX=1;entryY=0.5;entryDx=0;entryDy=0;exitX=1;exitY=0.5;exitDx=0;exitDy=0;" parent="elsuv7XGZq4n1BTtMGS8-76" source="elsuv7XGZq4n1BTtMGS8-78" target="elsuv7XGZq4n1BTtMGS8-78" edge="1">
          <mxGeometry width="50" height="100" relative="1" as="geometry">
            <mxPoint x="89.76190476190476" y="72" as="sourcePoint" />
            <mxPoint x="120.71428571428572" y="12" as="targetPoint" />
            <Array as="points" />
          </mxGeometry>
        </mxCell>
        <mxCell id="elsuv7XGZq4n1BTtMGS8-81" value="" style="endArrow=open;html=1;rounded=0;endSize=2;entryX=1;entryY=0.5;entryDx=0;entryDy=0;exitX=0.598;exitY=-0.024;exitDx=0;exitDy=0;exitPerimeter=0;startArrow=open;startFill=0;endFill=0;startSize=2;" parent="elsuv7XGZq4n1BTtMGS8-76" source="elsuv7XGZq4n1BTtMGS8-77" target="elsuv7XGZq4n1BTtMGS8-78" edge="1">
          <mxGeometry width="50" height="50" relative="1" as="geometry">
            <mxPoint x="117.61904761904762" y="30" as="sourcePoint" />
            <mxPoint x="94.77619047619042" y="12" as="targetPoint" />
            <Array as="points">
              <mxPoint x="123.80952380952381" y="6" />
            </Array>
          </mxGeometry>
        </mxCell>
        <mxCell id="elsuv7XGZq4n1BTtMGS8-82" value="" style="endArrow=open;html=1;rounded=0;endSize=2;entryX=0;entryY=0.5;entryDx=0;entryDy=0;exitX=0.5;exitY=0;exitDx=0;exitDy=0;strokeColor=default;align=center;verticalAlign=middle;fontFamily=Helvetica;fontSize=11;fontColor=default;labelBackgroundColor=default;startArrow=open;startFill=0;startSize=2;endFill=0;" parent="elsuv7XGZq4n1BTtMGS8-76" source="elsuv7XGZq4n1BTtMGS8-79" target="elsuv7XGZq4n1BTtMGS8-78" edge="1">
          <mxGeometry width="50" height="50" relative="1" as="geometry">
            <mxPoint x="59.42857142857143" y="24" as="sourcePoint" />
            <mxPoint x="51.38095238095238" y="12" as="targetPoint" />
            <Array as="points">
              <mxPoint x="30.952380952380953" y="6" />
            </Array>
          </mxGeometry>
        </mxCell>
        <mxCell id="elsuv7XGZq4n1BTtMGS8-83" value="" style="shape=cube;whiteSpace=wrap;html=1;boundedLbl=1;backgroundOutline=1;darkOpacity=0.05;darkOpacity2=0.1;size=10;shadow=1;" parent="elsuv7XGZq4n1BTtMGS8-76" vertex="1">
          <mxGeometry x="52.61904761904762" y="25.2" width="24.761904761904763" height="36" as="geometry" />
        </mxCell>
        <mxCell id="elsuv7XGZq4n1BTtMGS8-84" value="" style="endArrow=block;html=1;rounded=0;exitX=0.475;exitY=0.969;exitDx=0;exitDy=0;exitPerimeter=0;entryX=0.332;entryY=-0.012;entryDx=0;entryDy=0;entryPerimeter=0;endSize=2;strokeColor=default;align=center;verticalAlign=middle;fontFamily=Helvetica;fontSize=11;fontColor=default;labelBackgroundColor=default;endFill=1;" parent="elsuv7XGZq4n1BTtMGS8-76" source="elsuv7XGZq4n1BTtMGS8-78" target="elsuv7XGZq4n1BTtMGS8-83" edge="1">
          <mxGeometry width="50" height="50" relative="1" as="geometry">
            <mxPoint x="74.28571428571429" y="78" as="sourcePoint" />
            <mxPoint x="105.23809523809524" y="48" as="targetPoint" />
          </mxGeometry>
        </mxCell>
        <mxCell id="elsuv7XGZq4n1BTtMGS8-85" value="" style="endArrow=block;html=1;rounded=0;exitX=0;exitY=0.25;exitDx=0;exitDy=0;entryX=0.753;entryY=0.083;entryDx=0;entryDy=0;entryPerimeter=0;endSize=2;strokeColor=default;align=center;verticalAlign=middle;fontFamily=Helvetica;fontSize=11;fontColor=default;labelBackgroundColor=default;endFill=1;" parent="elsuv7XGZq4n1BTtMGS8-76" source="elsuv7XGZq4n1BTtMGS8-77" target="elsuv7XGZq4n1BTtMGS8-83" edge="1">
          <mxGeometry width="50" height="50" relative="1" as="geometry">
            <mxPoint x="71.19047619047619" y="18" as="sourcePoint" />
            <mxPoint x="71.19047619047619" y="30" as="targetPoint" />
          </mxGeometry>
        </mxCell>
        <mxCell id="elsuv7XGZq4n1BTtMGS8-86" value="" style="endArrow=block;html=1;rounded=0;exitX=0.93;exitY=0.361;exitDx=0;exitDy=0;entryX=-0.052;entryY=0.085;entryDx=0;entryDy=0;entryPerimeter=0;endSize=2;exitPerimeter=0;endFill=1;" parent="elsuv7XGZq4n1BTtMGS8-76" source="elsuv7XGZq4n1BTtMGS8-79" target="elsuv7XGZq4n1BTtMGS8-83" edge="1">
          <mxGeometry width="50" height="50" relative="1" as="geometry">
            <mxPoint x="104.61904761904762" y="34.199999999999996" as="sourcePoint" />
            <mxPoint x="83.57142857142857" y="34.199999999999996" as="targetPoint" />
          </mxGeometry>
        </mxCell>
        <mxCell id="elsuv7XGZq4n1BTtMGS8-87" value="" style="shape=parallelogram;html=1;strokeWidth=1;perimeter=parallelogramPerimeter;whiteSpace=wrap;rounded=1;arcSize=12;size=0.23;shadow=1;fillColor=#000000;" parent="elsuv7XGZq4n1BTtMGS8-76" vertex="1">
          <mxGeometry x="86.66666666666667" y="54" width="37.142857142857146" height="12" as="geometry" />
        </mxCell>
        <mxCell id="elsuv7XGZq4n1BTtMGS8-88" value="" style="shape=parallelogram;html=1;strokeWidth=1;perimeter=parallelogramPerimeter;whiteSpace=wrap;rounded=1;arcSize=12;size=0.23;shadow=1;" parent="elsuv7XGZq4n1BTtMGS8-76" vertex="1">
          <mxGeometry x="24.761904761904763" y="78" width="37.142857142857146" height="12" as="geometry" />
        </mxCell>
        <mxCell id="elsuv7XGZq4n1BTtMGS8-89" value="" style="shape=parallelogram;html=1;strokeWidth=1;perimeter=parallelogramPerimeter;whiteSpace=wrap;rounded=1;arcSize=12;size=0.23;shadow=1;" parent="elsuv7XGZq4n1BTtMGS8-76" vertex="1">
          <mxGeometry y="54" width="37.142857142857146" height="12" as="geometry" />
        </mxCell>
        <mxCell id="elsuv7XGZq4n1BTtMGS8-90" value="" style="edgeStyle=isometricEdgeStyle;endArrow=none;html=1;elbow=vertical;rounded=0;entryX=1;entryY=0.5;entryDx=0;entryDy=0;exitX=1;exitY=0.5;exitDx=0;exitDy=0;" parent="elsuv7XGZq4n1BTtMGS8-76" source="elsuv7XGZq4n1BTtMGS8-88" target="elsuv7XGZq4n1BTtMGS8-88" edge="1">
          <mxGeometry width="50" height="100" relative="1" as="geometry">
            <mxPoint x="83.57142857142857" y="102" as="sourcePoint" />
            <mxPoint x="114.52380952380953" y="42" as="targetPoint" />
            <Array as="points" />
          </mxGeometry>
        </mxCell>
        <mxCell id="elsuv7XGZq4n1BTtMGS8-91" value="" style="endArrow=open;html=1;rounded=0;endSize=2;entryX=1;entryY=0.5;entryDx=0;entryDy=0;exitX=0.421;exitY=1.024;exitDx=0;exitDy=0;exitPerimeter=0;strokeColor=default;align=center;verticalAlign=middle;fontFamily=Helvetica;fontSize=11;fontColor=default;labelBackgroundColor=default;startArrow=open;startFill=0;startSize=2;endFill=0;" parent="elsuv7XGZq4n1BTtMGS8-76" source="elsuv7XGZq4n1BTtMGS8-87" target="elsuv7XGZq4n1BTtMGS8-88" edge="1">
          <mxGeometry width="50" height="50" relative="1" as="geometry">
            <mxPoint x="111.42857142857143" y="60" as="sourcePoint" />
            <mxPoint x="88.58571428571423" y="42" as="targetPoint" />
            <Array as="points">
              <mxPoint x="92.85714285714286" y="84" />
            </Array>
          </mxGeometry>
        </mxCell>
        <mxCell id="elsuv7XGZq4n1BTtMGS8-92" value="" style="endArrow=open;html=1;rounded=0;endSize=2;entryX=0;entryY=0.5;entryDx=0;entryDy=0;exitX=0.405;exitY=1.002;exitDx=0;exitDy=0;exitPerimeter=0;strokeColor=default;align=center;verticalAlign=middle;fontFamily=Helvetica;fontSize=11;fontColor=default;labelBackgroundColor=default;startArrow=open;startFill=0;startSize=2;endFill=0;" parent="elsuv7XGZq4n1BTtMGS8-76" source="elsuv7XGZq4n1BTtMGS8-89" target="elsuv7XGZq4n1BTtMGS8-88" edge="1">
          <mxGeometry width="50" height="50" relative="1" as="geometry">
            <mxPoint x="53.23809523809524" y="54" as="sourcePoint" />
            <mxPoint x="45.19047619047619" y="42" as="targetPoint" />
            <Array as="points">
              <mxPoint y="84" />
            </Array>
          </mxGeometry>
        </mxCell>
        <mxCell id="elsuv7XGZq4n1BTtMGS8-93" value="" style="endArrow=block;html=1;rounded=0;exitX=0.605;exitY=-0.013;exitDx=0;exitDy=0;exitPerimeter=0;entryX=0.326;entryY=1.008;entryDx=0;entryDy=0;entryPerimeter=0;endSize=2;strokeColor=default;align=center;verticalAlign=middle;fontFamily=Helvetica;fontSize=11;fontColor=default;labelBackgroundColor=default;endFill=1;" parent="elsuv7XGZq4n1BTtMGS8-76" source="elsuv7XGZq4n1BTtMGS8-88" target="elsuv7XGZq4n1BTtMGS8-83" edge="1">
          <mxGeometry width="50" height="50" relative="1" as="geometry">
            <mxPoint x="68.0952380952381" y="108" as="sourcePoint" />
            <mxPoint x="58.80952380952381" y="55.199999999999996" as="targetPoint" />
          </mxGeometry>
        </mxCell>
        <mxCell id="elsuv7XGZq4n1BTtMGS8-94" value="" style="endArrow=block;html=1;rounded=0;exitX=0;exitY=0.25;exitDx=0;exitDy=0;endSize=2;entryX=1.006;entryY=0.917;entryDx=0;entryDy=0;entryPerimeter=0;strokeColor=default;align=center;verticalAlign=middle;fontFamily=Helvetica;fontSize=11;fontColor=default;labelBackgroundColor=default;endFill=1;" parent="elsuv7XGZq4n1BTtMGS8-76" source="elsuv7XGZq4n1BTtMGS8-87" target="elsuv7XGZq4n1BTtMGS8-83" edge="1">
          <mxGeometry width="50" height="50" relative="1" as="geometry">
            <mxPoint x="65" y="48" as="sourcePoint" />
            <mxPoint x="80.47619047619048" y="58.199999999999996" as="targetPoint" />
          </mxGeometry>
        </mxCell>
        <mxCell id="elsuv7XGZq4n1BTtMGS8-95" value="" style="endArrow=block;html=1;rounded=0;exitX=0.93;exitY=0.361;exitDx=0;exitDy=0;entryX=0.047;entryY=0.917;entryDx=0;entryDy=0;entryPerimeter=0;endSize=2;exitPerimeter=0;strokeColor=default;align=center;verticalAlign=middle;fontFamily=Helvetica;fontSize=11;fontColor=default;labelBackgroundColor=default;endFill=1;" parent="elsuv7XGZq4n1BTtMGS8-76" source="elsuv7XGZq4n1BTtMGS8-89" target="elsuv7XGZq4n1BTtMGS8-83" edge="1">
          <mxGeometry width="50" height="50" relative="1" as="geometry">
            <mxPoint x="98.42857142857143" y="64.2" as="sourcePoint" />
            <mxPoint x="48.285714285714285" y="58.199999999999996" as="targetPoint" />
          </mxGeometry>
        </mxCell>
        <mxCell id="elsuv7XGZq4n1BTtMGS8-96" value="" style="endArrow=open;startArrow=open;html=1;rounded=0;entryX=0.5;entryY=1;entryDx=0;entryDy=0;exitX=0.5;exitY=0;exitDx=0;exitDy=0;endSize=2;startSize=2;startFill=0;endFill=0;" parent="elsuv7XGZq4n1BTtMGS8-76" source="elsuv7XGZq4n1BTtMGS8-89" target="elsuv7XGZq4n1BTtMGS8-79" edge="1">
          <mxGeometry width="50" height="50" relative="1" as="geometry">
            <mxPoint x="12.380952380952381" y="60" as="sourcePoint" />
            <mxPoint x="43.333333333333336" y="30" as="targetPoint" />
          </mxGeometry>
        </mxCell>
        <mxCell id="elsuv7XGZq4n1BTtMGS8-97" value="" style="endArrow=open;startArrow=open;html=1;rounded=0;entryX=0.409;entryY=0.996;entryDx=0;entryDy=0;exitX=0.572;exitY=0.009;exitDx=0;exitDy=0;endSize=2;startSize=2;startFill=0;endFill=0;entryPerimeter=0;exitPerimeter=0;" parent="elsuv7XGZq4n1BTtMGS8-76" source="elsuv7XGZq4n1BTtMGS8-87" target="elsuv7XGZq4n1BTtMGS8-77" edge="1">
          <mxGeometry width="50" height="50" relative="1" as="geometry">
            <mxPoint x="111.31095238095239" y="54" as="sourcePoint" />
            <mxPoint x="111.31095238095239" y="36" as="targetPoint" />
          </mxGeometry>
        </mxCell>
        <mxCell id="elsuv7XGZq4n1BTtMGS8-98" value="&lt;font size=&quot;1&quot; color=&quot;#475f75&quot;&gt;&lt;b style=&quot;&quot;&gt;UML Class Diagram&lt;/b&gt;&lt;/font&gt;" style="rounded=1;whiteSpace=wrap;html=1;arcSize=50;strokeColor=#475f75;fillColor=default;strokeWidth=1.5;" parent="1" vertex="1">
          <mxGeometry x="193" y="167" width="107" height="16" as="geometry" />
        </mxCell>
        <mxCell id="elsuv7XGZq4n1BTtMGS8-99" style="edgeStyle=orthogonalEdgeStyle;rounded=0;orthogonalLoop=1;jettySize=auto;html=1;entryX=0.5;entryY=1;entryDx=0;entryDy=0;exitX=0.5;exitY=0;exitDx=0;exitDy=0;endArrow=block;endFill=0;" parent="1" source="elsuv7XGZq4n1BTtMGS8-100" target="elsuv7XGZq4n1BTtMGS8-103" edge="1">
          <mxGeometry relative="1" as="geometry">
            <Array as="points">
              <mxPoint x="595" y="400" />
              <mxPoint x="415" y="400" />
            </Array>
          </mxGeometry>
        </mxCell>
        <mxCell id="elsuv7XGZq4n1BTtMGS8-100" value="&lt;p style=&quot;margin:0px;margin-top:4px;text-align:center;&quot;&gt;&lt;span style=&quot;background-color: transparent; color: light-dark(rgb(0, 0, 0), rgb(255, 255, 255));&quot;&gt;BatteryPack&lt;/span&gt;&lt;/p&gt;&lt;hr size=&quot;1&quot; style=&quot;border-style:solid;&quot;&gt;&lt;p style=&quot;margin: 0px 0px 0px 4px;&quot;&gt;&lt;br&gt;&lt;/p&gt;&lt;hr style=&quot;border-style: solid;&quot; size=&quot;1&quot;&gt;&lt;p style=&quot;margin: 0px 0px 0px 4px;&quot;&gt;&lt;span style=&quot;background-color: transparent; color: light-dark(rgb(0, 0, 0), rgb(255, 255, 255));&quot;&gt;CheckSoC()&lt;/span&gt;&lt;/p&gt;" style="verticalAlign=top;align=left;overflow=fill;html=1;whiteSpace=wrap;rounded=0;" parent="1" vertex="1">
          <mxGeometry x="510" y="423.75" width="170" height="76.25" as="geometry" />
        </mxCell>
        <mxCell id="elsuv7XGZq4n1BTtMGS8-101" style="edgeStyle=orthogonalEdgeStyle;rounded=0;orthogonalLoop=1;jettySize=auto;html=1;entryX=0.5;entryY=1;entryDx=0;entryDy=0;exitX=0.5;exitY=0;exitDx=0;exitDy=0;endArrow=block;endFill=0;" parent="1" source="elsuv7XGZq4n1BTtMGS8-102" target="elsuv7XGZq4n1BTtMGS8-103" edge="1">
          <mxGeometry relative="1" as="geometry">
            <Array as="points">
              <mxPoint x="232" y="400" />
              <mxPoint x="415" y="400" />
            </Array>
          </mxGeometry>
        </mxCell>
        <mxCell id="elsuv7XGZq4n1BTtMGS8-102" value="&lt;p style=&quot;margin:0px;margin-top:4px;text-align:center;&quot;&gt;Battery&lt;/p&gt;&lt;hr size=&quot;1&quot; style=&quot;border-style:solid;&quot;&gt;&lt;p style=&quot;margin:0px;margin-left:4px;&quot;&gt;&lt;br&gt;&lt;/p&gt;&lt;hr style=&quot;border-style: solid;&quot; size=&quot;1&quot;&gt;&lt;p style=&quot;margin: 0px 0px 0px 4px;&quot;&gt;getSoC(): Float&lt;/p&gt;" style="verticalAlign=top;align=left;overflow=fill;html=1;whiteSpace=wrap;rounded=0;" parent="1" vertex="1">
          <mxGeometry x="146.5" y="422.19" width="170" height="79.37" as="geometry" />
        </mxCell>
        <mxCell id="elsuv7XGZq4n1BTtMGS8-103" value="&lt;p style=&quot;margin:0px;margin-top:4px;text-align:center;&quot;&gt;&lt;i&gt;PowerSupplyingPart&lt;/i&gt;&lt;/p&gt;&lt;hr size=&quot;1&quot; style=&quot;border-style:solid;&quot;&gt;&lt;p style=&quot;margin: 0px 0px 0px 4px;&quot;&gt;&lt;span style=&quot;background-color: initial; color: light-dark(rgb(0, 0, 0), rgb(255, 255, 255));&quot;&gt;safetyLevel&lt;/span&gt;&lt;span style=&quot;background-color: initial; color: light-dark(rgb(0, 0, 0), rgb(255, 255, 255));&quot;&gt;:&lt;/span&gt;&lt;span style=&quot;background-color: initial; color: light-dark(rgb(0, 0, 0), rgb(255, 255, 255));&quot;&gt;&amp;nbsp;Enum&lt;/span&gt;&lt;/p&gt;&lt;div&gt;&lt;p style=&quot;margin: 0px 0px 0px 4px;&quot;&gt;&lt;span style=&quot;background-color: transparent; color: light-dark(rgb(0, 0, 0), rgb(255, 255, 255));&quot;&gt;rawMaterial&lt;/span&gt;&lt;span style=&quot;background-color: initial; color: light-dark(rgb(0, 0, 0), rgb(255, 255, 255));&quot;&gt;:&lt;/span&gt;&lt;span style=&quot;background-color: initial; color: light-dark(rgb(0, 0, 0), rgb(255, 255, 255));&quot;&gt;&amp;nbsp;String&lt;/span&gt;&lt;/p&gt;&lt;div&gt;&lt;p style=&quot;margin: 0px 0px 0px 4px;&quot;&gt;maxCharge&lt;span style=&quot;background-color: initial;&quot;&gt;:&lt;/span&gt;&lt;span style=&quot;background-color: initial;&quot;&gt;&amp;nbsp;Float&lt;/span&gt;&lt;/p&gt;&lt;/div&gt;&lt;/div&gt;&lt;div&gt;&amp;nbsp;SoC: Float&lt;/div&gt;&lt;hr size=&quot;1&quot; style=&quot;border-style:solid;&quot;&gt;&lt;p style=&quot;margin:0px;margin-left:4px;&quot;&gt;&lt;span style=&quot;background-color: transparent; color: light-dark(rgb(0, 0, 0), rgb(255, 255, 255));&quot;&gt;startSupplying()&lt;/span&gt;&lt;/p&gt;&lt;p style=&quot;margin: 0px 0px 0px 4px;&quot;&gt;&lt;span style=&quot;background-color: transparent; color: light-dark(rgb(0, 0, 0), rgb(255, 255, 255));&quot;&gt;stopSupplying&lt;/span&gt;()&lt;/p&gt;&lt;p style=&quot;margin: 0px 0px 0px 4px;&quot;&gt;&lt;span style=&quot;background-color: rgb(255, 255, 255); text-align: center; text-wrap-mode: nowrap; color: light-dark(rgb(0, 0, 0), rgb(255, 255, 255));&quot;&gt;&lt;span style=&quot;background-color: transparent; color: light-dark(rgb(0, 0, 0), rgb(255, 255, 255)); text-align: left; text-wrap-mode: wrap;&quot;&gt;startCharging&lt;/span&gt;()&lt;/span&gt;&lt;/p&gt;&lt;p style=&quot;margin:0px;margin-left:4px;&quot;&gt;&lt;span style=&quot;color: light-dark(rgb(0, 0, 0), rgb(255, 255, 255)); background-color: rgb(255, 255, 255);&quot;&gt;stopCharging&lt;/span&gt;&lt;span style=&quot;background-color: light-dark(rgb(251, 251, 251), rgb(21, 21, 21)); color: light-dark(rgb(0, 0, 0), rgb(255, 255, 255));&quot;&gt;()&lt;/span&gt;)&lt;/p&gt;" style="verticalAlign=top;align=left;overflow=fill;html=1;whiteSpace=wrap;rounded=0;" parent="1" vertex="1">
          <mxGeometry x="330" y="210" width="170" height="170" as="geometry" />
        </mxCell>
        <mxCell id="elsuv7XGZq4n1BTtMGS8-104" value="" style="rounded=1;whiteSpace=wrap;html=1;strokeColor=#475E75;fillColor=#F5F6F7;arcSize=24;absoluteArcSize=1;imageWidth=64;imageHeight=64;strokeWidth=1.5;" parent="1" vertex="1">
          <mxGeometry x="40" y="600" width="740" height="610" as="geometry" />
        </mxCell>
        <mxCell id="elsuv7XGZq4n1BTtMGS8-105" value="&lt;b&gt;Interaction Model&lt;/b&gt;" style="rounded=1;whiteSpace=wrap;html=1;strokeWidth=1.5;arcSize=16;perimeterSpacing=0;absoluteArcSize=1;" parent="1" vertex="1">
          <mxGeometry x="50" y="610" width="130" height="30" as="geometry" />
        </mxCell>
        <mxCell id="elsuv7XGZq4n1BTtMGS8-106" value="" style="group;glass=0;shadow=0;" parent="1" vertex="1" connectable="0">
          <mxGeometry x="630" y="620" width="130" height="90" as="geometry" />
        </mxCell>
        <mxCell id="elsuv7XGZq4n1BTtMGS8-107" value="" style="shape=parallelogram;html=1;strokeWidth=1;perimeter=parallelogramPerimeter;whiteSpace=wrap;rounded=1;arcSize=12;size=0.23;shadow=0;" parent="elsuv7XGZq4n1BTtMGS8-106" vertex="1">
          <mxGeometry x="92.85714285714286" y="24" width="37.142857142857146" height="12" as="geometry" />
        </mxCell>
        <mxCell id="elsuv7XGZq4n1BTtMGS8-108" value="" style="shape=parallelogram;html=1;strokeWidth=1;perimeter=parallelogramPerimeter;whiteSpace=wrap;rounded=1;arcSize=12;size=0.23;shadow=0;" parent="elsuv7XGZq4n1BTtMGS8-106" vertex="1">
          <mxGeometry x="49.523809523809526" width="37.142857142857146" height="12" as="geometry" />
        </mxCell>
        <mxCell id="elsuv7XGZq4n1BTtMGS8-109" value="" style="shape=parallelogram;html=1;strokeWidth=1;perimeter=parallelogramPerimeter;whiteSpace=wrap;rounded=1;arcSize=12;size=0.23;shadow=0;" parent="elsuv7XGZq4n1BTtMGS8-106" vertex="1">
          <mxGeometry y="24" width="37.142857142857146" height="12" as="geometry" />
        </mxCell>
        <mxCell id="elsuv7XGZq4n1BTtMGS8-110" value="" style="edgeStyle=isometricEdgeStyle;endArrow=none;html=1;elbow=vertical;rounded=0;entryX=1;entryY=0.5;entryDx=0;entryDy=0;exitX=1;exitY=0.5;exitDx=0;exitDy=0;" parent="elsuv7XGZq4n1BTtMGS8-106" source="elsuv7XGZq4n1BTtMGS8-108" target="elsuv7XGZq4n1BTtMGS8-108" edge="1">
          <mxGeometry width="50" height="100" relative="1" as="geometry">
            <mxPoint x="89.76190476190476" y="72" as="sourcePoint" />
            <mxPoint x="120.71428571428572" y="12" as="targetPoint" />
            <Array as="points" />
          </mxGeometry>
        </mxCell>
        <mxCell id="elsuv7XGZq4n1BTtMGS8-111" value="" style="endArrow=open;html=1;rounded=0;endSize=2;entryX=1;entryY=0.5;entryDx=0;entryDy=0;exitX=0.598;exitY=-0.024;exitDx=0;exitDy=0;exitPerimeter=0;startArrow=open;startFill=0;endFill=0;startSize=2;" parent="elsuv7XGZq4n1BTtMGS8-106" source="elsuv7XGZq4n1BTtMGS8-107" target="elsuv7XGZq4n1BTtMGS8-108" edge="1">
          <mxGeometry width="50" height="50" relative="1" as="geometry">
            <mxPoint x="117.61904761904762" y="30" as="sourcePoint" />
            <mxPoint x="94.77619047619042" y="12" as="targetPoint" />
            <Array as="points">
              <mxPoint x="123.80952380952381" y="6" />
            </Array>
          </mxGeometry>
        </mxCell>
        <mxCell id="elsuv7XGZq4n1BTtMGS8-112" value="" style="endArrow=open;html=1;rounded=0;endSize=2;entryX=0;entryY=0.5;entryDx=0;entryDy=0;exitX=0.5;exitY=0;exitDx=0;exitDy=0;strokeColor=default;align=center;verticalAlign=middle;fontFamily=Helvetica;fontSize=11;fontColor=default;labelBackgroundColor=default;startArrow=open;startFill=0;startSize=2;endFill=0;" parent="elsuv7XGZq4n1BTtMGS8-106" source="elsuv7XGZq4n1BTtMGS8-109" target="elsuv7XGZq4n1BTtMGS8-108" edge="1">
          <mxGeometry width="50" height="50" relative="1" as="geometry">
            <mxPoint x="59.42857142857143" y="24" as="sourcePoint" />
            <mxPoint x="51.38095238095238" y="12" as="targetPoint" />
            <Array as="points">
              <mxPoint x="30.952380952380953" y="6" />
            </Array>
          </mxGeometry>
        </mxCell>
        <mxCell id="elsuv7XGZq4n1BTtMGS8-113" value="" style="shape=cube;whiteSpace=wrap;html=1;boundedLbl=1;backgroundOutline=1;darkOpacity=0.05;darkOpacity2=0.1;size=10;shadow=1;" parent="elsuv7XGZq4n1BTtMGS8-106" vertex="1">
          <mxGeometry x="52.61904761904762" y="25.2" width="24.761904761904763" height="36" as="geometry" />
        </mxCell>
        <mxCell id="elsuv7XGZq4n1BTtMGS8-114" value="" style="endArrow=block;html=1;rounded=0;exitX=0.475;exitY=0.969;exitDx=0;exitDy=0;exitPerimeter=0;entryX=0.332;entryY=-0.012;entryDx=0;entryDy=0;entryPerimeter=0;endSize=2;strokeColor=default;align=center;verticalAlign=middle;fontFamily=Helvetica;fontSize=11;fontColor=default;labelBackgroundColor=default;endFill=1;" parent="elsuv7XGZq4n1BTtMGS8-106" source="elsuv7XGZq4n1BTtMGS8-108" target="elsuv7XGZq4n1BTtMGS8-113" edge="1">
          <mxGeometry width="50" height="50" relative="1" as="geometry">
            <mxPoint x="74.28571428571429" y="78" as="sourcePoint" />
            <mxPoint x="105.23809523809524" y="48" as="targetPoint" />
          </mxGeometry>
        </mxCell>
        <mxCell id="elsuv7XGZq4n1BTtMGS8-115" value="" style="endArrow=block;html=1;rounded=0;exitX=0;exitY=0.25;exitDx=0;exitDy=0;entryX=0.753;entryY=0.083;entryDx=0;entryDy=0;entryPerimeter=0;endSize=2;strokeColor=default;align=center;verticalAlign=middle;fontFamily=Helvetica;fontSize=11;fontColor=default;labelBackgroundColor=default;endFill=1;" parent="elsuv7XGZq4n1BTtMGS8-106" source="elsuv7XGZq4n1BTtMGS8-107" target="elsuv7XGZq4n1BTtMGS8-113" edge="1">
          <mxGeometry width="50" height="50" relative="1" as="geometry">
            <mxPoint x="71.19047619047619" y="18" as="sourcePoint" />
            <mxPoint x="71.19047619047619" y="30" as="targetPoint" />
          </mxGeometry>
        </mxCell>
        <mxCell id="elsuv7XGZq4n1BTtMGS8-116" value="" style="endArrow=block;html=1;rounded=0;exitX=0.93;exitY=0.361;exitDx=0;exitDy=0;entryX=-0.052;entryY=0.085;entryDx=0;entryDy=0;entryPerimeter=0;endSize=2;exitPerimeter=0;endFill=1;" parent="elsuv7XGZq4n1BTtMGS8-106" source="elsuv7XGZq4n1BTtMGS8-109" target="elsuv7XGZq4n1BTtMGS8-113" edge="1">
          <mxGeometry width="50" height="50" relative="1" as="geometry">
            <mxPoint x="104.61904761904762" y="34.199999999999996" as="sourcePoint" />
            <mxPoint x="83.57142857142857" y="34.199999999999996" as="targetPoint" />
          </mxGeometry>
        </mxCell>
        <mxCell id="elsuv7XGZq4n1BTtMGS8-117" value="" style="shape=parallelogram;html=1;strokeWidth=1;perimeter=parallelogramPerimeter;whiteSpace=wrap;rounded=1;arcSize=12;size=0.23;shadow=1;fillColor=#FFFFFF;" parent="elsuv7XGZq4n1BTtMGS8-106" vertex="1">
          <mxGeometry x="86.66666666666667" y="54" width="37.142857142857146" height="12" as="geometry" />
        </mxCell>
        <mxCell id="elsuv7XGZq4n1BTtMGS8-118" value="" style="shape=parallelogram;html=1;strokeWidth=1;perimeter=parallelogramPerimeter;whiteSpace=wrap;rounded=1;arcSize=12;size=0.23;shadow=1;" parent="elsuv7XGZq4n1BTtMGS8-106" vertex="1">
          <mxGeometry x="24.761904761904763" y="78" width="37.142857142857146" height="12" as="geometry" />
        </mxCell>
        <mxCell id="elsuv7XGZq4n1BTtMGS8-119" value="" style="shape=parallelogram;html=1;strokeWidth=1;perimeter=parallelogramPerimeter;whiteSpace=wrap;rounded=1;arcSize=12;size=0.23;shadow=1;fillColor=#000000;" parent="elsuv7XGZq4n1BTtMGS8-106" vertex="1">
          <mxGeometry y="54" width="37.142857142857146" height="12" as="geometry" />
        </mxCell>
        <mxCell id="elsuv7XGZq4n1BTtMGS8-120" value="" style="edgeStyle=isometricEdgeStyle;endArrow=none;html=1;elbow=vertical;rounded=0;entryX=1;entryY=0.5;entryDx=0;entryDy=0;exitX=1;exitY=0.5;exitDx=0;exitDy=0;" parent="elsuv7XGZq4n1BTtMGS8-106" source="elsuv7XGZq4n1BTtMGS8-118" target="elsuv7XGZq4n1BTtMGS8-118" edge="1">
          <mxGeometry width="50" height="100" relative="1" as="geometry">
            <mxPoint x="83.57142857142857" y="102" as="sourcePoint" />
            <mxPoint x="114.52380952380953" y="42" as="targetPoint" />
            <Array as="points" />
          </mxGeometry>
        </mxCell>
        <mxCell id="elsuv7XGZq4n1BTtMGS8-121" value="" style="endArrow=open;html=1;rounded=0;endSize=2;entryX=1;entryY=0.5;entryDx=0;entryDy=0;exitX=0.421;exitY=1.024;exitDx=0;exitDy=0;exitPerimeter=0;strokeColor=default;align=center;verticalAlign=middle;fontFamily=Helvetica;fontSize=11;fontColor=default;labelBackgroundColor=default;startArrow=open;startFill=0;startSize=2;endFill=0;" parent="elsuv7XGZq4n1BTtMGS8-106" source="elsuv7XGZq4n1BTtMGS8-117" target="elsuv7XGZq4n1BTtMGS8-118" edge="1">
          <mxGeometry width="50" height="50" relative="1" as="geometry">
            <mxPoint x="111.42857142857143" y="60" as="sourcePoint" />
            <mxPoint x="88.58571428571423" y="42" as="targetPoint" />
            <Array as="points">
              <mxPoint x="92.85714285714286" y="84" />
            </Array>
          </mxGeometry>
        </mxCell>
        <mxCell id="elsuv7XGZq4n1BTtMGS8-122" value="" style="endArrow=open;html=1;rounded=0;endSize=2;entryX=0;entryY=0.5;entryDx=0;entryDy=0;exitX=0.405;exitY=1.002;exitDx=0;exitDy=0;exitPerimeter=0;strokeColor=default;align=center;verticalAlign=middle;fontFamily=Helvetica;fontSize=11;fontColor=default;labelBackgroundColor=default;startArrow=open;startFill=0;startSize=2;endFill=0;" parent="elsuv7XGZq4n1BTtMGS8-106" source="elsuv7XGZq4n1BTtMGS8-119" target="elsuv7XGZq4n1BTtMGS8-118" edge="1">
          <mxGeometry width="50" height="50" relative="1" as="geometry">
            <mxPoint x="53.23809523809524" y="54" as="sourcePoint" />
            <mxPoint x="45.19047619047619" y="42" as="targetPoint" />
            <Array as="points">
              <mxPoint y="84" />
            </Array>
          </mxGeometry>
        </mxCell>
        <mxCell id="elsuv7XGZq4n1BTtMGS8-123" value="" style="endArrow=block;html=1;rounded=0;exitX=0.605;exitY=-0.013;exitDx=0;exitDy=0;exitPerimeter=0;entryX=0.326;entryY=1.008;entryDx=0;entryDy=0;entryPerimeter=0;endSize=2;strokeColor=default;align=center;verticalAlign=middle;fontFamily=Helvetica;fontSize=11;fontColor=default;labelBackgroundColor=default;endFill=1;" parent="elsuv7XGZq4n1BTtMGS8-106" source="elsuv7XGZq4n1BTtMGS8-118" target="elsuv7XGZq4n1BTtMGS8-113" edge="1">
          <mxGeometry width="50" height="50" relative="1" as="geometry">
            <mxPoint x="68.0952380952381" y="108" as="sourcePoint" />
            <mxPoint x="58.80952380952381" y="55.199999999999996" as="targetPoint" />
          </mxGeometry>
        </mxCell>
        <mxCell id="elsuv7XGZq4n1BTtMGS8-124" value="" style="endArrow=block;html=1;rounded=0;exitX=0;exitY=0.25;exitDx=0;exitDy=0;endSize=2;entryX=1.006;entryY=0.917;entryDx=0;entryDy=0;entryPerimeter=0;strokeColor=default;align=center;verticalAlign=middle;fontFamily=Helvetica;fontSize=11;fontColor=default;labelBackgroundColor=default;endFill=1;" parent="elsuv7XGZq4n1BTtMGS8-106" source="elsuv7XGZq4n1BTtMGS8-117" target="elsuv7XGZq4n1BTtMGS8-113" edge="1">
          <mxGeometry width="50" height="50" relative="1" as="geometry">
            <mxPoint x="65" y="48" as="sourcePoint" />
            <mxPoint x="80.47619047619048" y="58.199999999999996" as="targetPoint" />
          </mxGeometry>
        </mxCell>
        <mxCell id="elsuv7XGZq4n1BTtMGS8-125" value="" style="endArrow=block;html=1;rounded=0;exitX=0.93;exitY=0.361;exitDx=0;exitDy=0;entryX=0.047;entryY=0.917;entryDx=0;entryDy=0;entryPerimeter=0;endSize=2;exitPerimeter=0;strokeColor=default;align=center;verticalAlign=middle;fontFamily=Helvetica;fontSize=11;fontColor=default;labelBackgroundColor=default;endFill=1;" parent="elsuv7XGZq4n1BTtMGS8-106" source="elsuv7XGZq4n1BTtMGS8-119" target="elsuv7XGZq4n1BTtMGS8-113" edge="1">
          <mxGeometry width="50" height="50" relative="1" as="geometry">
            <mxPoint x="98.42857142857143" y="64.2" as="sourcePoint" />
            <mxPoint x="48.285714285714285" y="58.199999999999996" as="targetPoint" />
          </mxGeometry>
        </mxCell>
        <mxCell id="elsuv7XGZq4n1BTtMGS8-126" value="" style="endArrow=open;startArrow=open;html=1;rounded=0;entryX=0.5;entryY=1;entryDx=0;entryDy=0;exitX=0.5;exitY=0;exitDx=0;exitDy=0;endSize=2;startSize=2;startFill=0;endFill=0;" parent="elsuv7XGZq4n1BTtMGS8-106" source="elsuv7XGZq4n1BTtMGS8-119" target="elsuv7XGZq4n1BTtMGS8-109" edge="1">
          <mxGeometry width="50" height="50" relative="1" as="geometry">
            <mxPoint x="12.380952380952381" y="60" as="sourcePoint" />
            <mxPoint x="43.333333333333336" y="30" as="targetPoint" />
          </mxGeometry>
        </mxCell>
        <mxCell id="elsuv7XGZq4n1BTtMGS8-127" value="" style="endArrow=open;startArrow=open;html=1;rounded=0;entryX=0.409;entryY=0.996;entryDx=0;entryDy=0;exitX=0.572;exitY=0.009;exitDx=0;exitDy=0;endSize=2;startSize=2;startFill=0;endFill=0;entryPerimeter=0;exitPerimeter=0;" parent="elsuv7XGZq4n1BTtMGS8-106" source="elsuv7XGZq4n1BTtMGS8-117" target="elsuv7XGZq4n1BTtMGS8-107" edge="1">
          <mxGeometry width="50" height="50" relative="1" as="geometry">
            <mxPoint x="111.31095238095239" y="54" as="sourcePoint" />
            <mxPoint x="111.31095238095239" y="36" as="targetPoint" />
          </mxGeometry>
        </mxCell>
        <mxCell id="elsuv7XGZq4n1BTtMGS8-128" value="&lt;font size=&quot;1&quot; color=&quot;#475f75&quot;&gt;&lt;b style=&quot;&quot;&gt;UML Collaboration Diagram&lt;/b&gt;&lt;/font&gt;" style="rounded=1;whiteSpace=wrap;html=1;arcSize=50;strokeColor=#475f75;fillColor=default;strokeWidth=1.5;" parent="1" vertex="1">
          <mxGeometry x="193" y="617" width="147" height="16" as="geometry" />
        </mxCell>
        <mxCell id="elsuv7XGZq4n1BTtMGS8-160" style="edgeStyle=orthogonalEdgeStyle;rounded=0;orthogonalLoop=1;jettySize=auto;html=1;exitX=0.5;exitY=1;exitDx=0;exitDy=0;entryX=0.5;entryY=0;entryDx=0;entryDy=0;endArrow=none;endFill=0;" parent="1" source="elsuv7XGZq4n1BTtMGS8-135" target="elsuv7XGZq4n1BTtMGS8-138" edge="1">
          <mxGeometry relative="1" as="geometry" />
        </mxCell>
        <mxCell id="elsuv7XGZq4n1BTtMGS8-135" value="&lt;b&gt;&lt;u&gt;:BatteryPack&lt;/u&gt;&lt;/b&gt;" style="rounded=0;whiteSpace=wrap;html=1;" parent="1" vertex="1">
          <mxGeometry x="340" y="850" width="120" height="60" as="geometry" />
        </mxCell>
        <mxCell id="elsuv7XGZq4n1BTtMGS8-159" style="edgeStyle=orthogonalEdgeStyle;rounded=0;orthogonalLoop=1;jettySize=auto;html=1;exitX=0.5;exitY=1;exitDx=0;exitDy=0;entryX=0.5;entryY=0;entryDx=0;entryDy=0;endArrow=none;endFill=0;" parent="1" source="elsuv7XGZq4n1BTtMGS8-136" target="elsuv7XGZq4n1BTtMGS8-135" edge="1">
          <mxGeometry relative="1" as="geometry" />
        </mxCell>
        <mxCell id="elsuv7XGZq4n1BTtMGS8-136" value="&lt;b&gt;&lt;u&gt;B1:Battery&lt;/u&gt;&lt;/b&gt;" style="rounded=0;whiteSpace=wrap;html=1;" parent="1" vertex="1">
          <mxGeometry x="340" y="670" width="120" height="60" as="geometry" />
        </mxCell>
        <mxCell id="elsuv7XGZq4n1BTtMGS8-138" value="&lt;b&gt;&lt;u&gt;B2:Battery&lt;/u&gt;&lt;/b&gt;" style="rounded=0;whiteSpace=wrap;html=1;strokeColor=default;align=center;verticalAlign=middle;fontFamily=Helvetica;fontSize=12;fontColor=default;fillColor=default;" parent="1" vertex="1">
          <mxGeometry x="340" y="1120" width="120" height="60" as="geometry" />
        </mxCell>
        <mxCell id="elsuv7XGZq4n1BTtMGS8-161" value="" style="endArrow=block;html=1;rounded=0;entryX=0.554;entryY=0.262;entryDx=0;entryDy=0;entryPerimeter=0;endFill=1;" parent="1" edge="1">
          <mxGeometry width="50" height="50" relative="1" as="geometry">
            <mxPoint x="420.04" y="780.18" as="sourcePoint" />
            <mxPoint x="420.00000000000006" y="739.9999999999997" as="targetPoint" />
          </mxGeometry>
        </mxCell>
        <mxCell id="elsuv7XGZq4n1BTtMGS8-162" value="" style="endArrow=block;html=1;rounded=0;entryX=0.554;entryY=0.262;entryDx=0;entryDy=0;entryPerimeter=0;endFill=1;" parent="1" edge="1">
          <mxGeometry width="50" height="50" relative="1" as="geometry">
            <mxPoint x="380" y="780" as="sourcePoint" />
            <mxPoint x="380" y="740" as="targetPoint" />
          </mxGeometry>
        </mxCell>
        <mxCell id="elsuv7XGZq4n1BTtMGS8-163" value="" style="endArrow=block;html=1;rounded=0;entryX=0.554;entryY=0.262;entryDx=0;entryDy=0;entryPerimeter=0;endFill=1;" parent="1" edge="1">
          <mxGeometry width="50" height="50" relative="1" as="geometry">
            <mxPoint x="420" y="830" as="sourcePoint" />
            <mxPoint x="420" y="790" as="targetPoint" />
          </mxGeometry>
        </mxCell>
        <mxCell id="elsuv7XGZq4n1BTtMGS8-164" value="" style="endArrow=block;html=1;rounded=0;entryX=0.554;entryY=0.262;entryDx=0;entryDy=0;entryPerimeter=0;endFill=1;" parent="1" edge="1">
          <mxGeometry width="50" height="50" relative="1" as="geometry">
            <mxPoint x="380" y="830" as="sourcePoint" />
            <mxPoint x="380" y="790" as="targetPoint" />
          </mxGeometry>
        </mxCell>
        <mxCell id="elsuv7XGZq4n1BTtMGS8-165" value="" style="endArrow=block;html=1;rounded=0;entryX=0.568;entryY=0.377;entryDx=0;entryDy=0;entryPerimeter=0;endFill=1;" parent="1" edge="1">
          <mxGeometry width="50" height="50" relative="1" as="geometry">
            <mxPoint x="420" y="920" as="sourcePoint" />
            <mxPoint x="420.31999999999994" y="961" as="targetPoint" />
          </mxGeometry>
        </mxCell>
        <mxCell id="elsuv7XGZq4n1BTtMGS8-166" value="" style="endArrow=block;html=1;rounded=0;entryX=0.568;entryY=0.377;entryDx=0;entryDy=0;entryPerimeter=0;endFill=1;" parent="1" edge="1">
          <mxGeometry width="50" height="50" relative="1" as="geometry">
            <mxPoint x="379.99999999999994" y="920" as="sourcePoint" />
            <mxPoint x="380.3199999999999" y="961" as="targetPoint" />
          </mxGeometry>
        </mxCell>
        <mxCell id="elsuv7XGZq4n1BTtMGS8-167" value="" style="endArrow=block;html=1;rounded=0;entryX=0.568;entryY=0.377;entryDx=0;entryDy=0;entryPerimeter=0;endFill=1;" parent="1" edge="1">
          <mxGeometry width="50" height="50" relative="1" as="geometry">
            <mxPoint x="420" y="970" as="sourcePoint" />
            <mxPoint x="420.31999999999994" y="1011" as="targetPoint" />
          </mxGeometry>
        </mxCell>
        <mxCell id="elsuv7XGZq4n1BTtMGS8-168" value="" style="endArrow=block;html=1;rounded=0;entryX=0.568;entryY=0.377;entryDx=0;entryDy=0;entryPerimeter=0;endFill=1;" parent="1" edge="1">
          <mxGeometry width="50" height="50" relative="1" as="geometry">
            <mxPoint x="379.99999999999994" y="970" as="sourcePoint" />
            <mxPoint x="380.3199999999999" y="1011" as="targetPoint" />
          </mxGeometry>
        </mxCell>
        <mxCell id="elsuv7XGZq4n1BTtMGS8-169" value="" style="endArrow=block;html=1;rounded=0;entryX=0.568;entryY=0.377;entryDx=0;entryDy=0;entryPerimeter=0;endFill=1;" parent="1" edge="1">
          <mxGeometry width="50" height="50" relative="1" as="geometry">
            <mxPoint x="420" y="1020" as="sourcePoint" />
            <mxPoint x="420.31999999999994" y="1061" as="targetPoint" />
          </mxGeometry>
        </mxCell>
        <mxCell id="elsuv7XGZq4n1BTtMGS8-170" value="" style="endArrow=block;html=1;rounded=0;entryX=0.568;entryY=0.377;entryDx=0;entryDy=0;entryPerimeter=0;endFill=1;" parent="1" edge="1">
          <mxGeometry width="50" height="50" relative="1" as="geometry">
            <mxPoint x="379.99999999999994" y="1020" as="sourcePoint" />
            <mxPoint x="380.3199999999999" y="1061" as="targetPoint" />
          </mxGeometry>
        </mxCell>
        <mxCell id="elsuv7XGZq4n1BTtMGS8-171" value="" style="endArrow=block;html=1;rounded=0;entryX=0.568;entryY=0.377;entryDx=0;entryDy=0;entryPerimeter=0;endFill=1;fontStyle=1" parent="1" edge="1">
          <mxGeometry width="50" height="50" relative="1" as="geometry">
            <mxPoint x="379.99999999999994" y="1070" as="sourcePoint" />
            <mxPoint x="380.3199999999999" y="1111" as="targetPoint" />
          </mxGeometry>
        </mxCell>
        <mxCell id="elsuv7XGZq4n1BTtMGS8-173" value="" style="endArrow=none;html=1;rounded=0;entryX=0;entryY=0.5;entryDx=0;entryDy=0;endFill=0;exitX=0.27;exitY=0.459;exitDx=0;exitDy=0;exitPerimeter=0;" parent="1" source="elsuv7XGZq4n1BTtMGS8-104" target="elsuv7XGZq4n1BTtMGS8-135" edge="1">
          <mxGeometry width="50" height="50" relative="1" as="geometry">
            <mxPoint x="239.99999999999994" y="859.5" as="sourcePoint" />
            <mxPoint x="240.31999999999988" y="900.5" as="targetPoint" />
          </mxGeometry>
        </mxCell>
        <mxCell id="elsuv7XGZq4n1BTtMGS8-174" value="" style="endArrow=block;html=1;rounded=0;entryX=0.568;entryY=0.377;entryDx=0;entryDy=0;entryPerimeter=0;endFill=1;" parent="1" edge="1">
          <mxGeometry width="50" height="50" relative="1" as="geometry">
            <mxPoint x="260" y="870" as="sourcePoint" />
            <mxPoint x="309.9999999999999" y="870" as="targetPoint" />
          </mxGeometry>
        </mxCell>
        <mxCell id="elsuv7XGZq4n1BTtMGS8-176" value="1: getSoC()" style="text;html=1;align=right;verticalAlign=middle;whiteSpace=wrap;rounded=0;" parent="1" vertex="1">
          <mxGeometry x="290" y="800" width="70" height="30" as="geometry" />
        </mxCell>
        <mxCell id="elsuv7XGZq4n1BTtMGS8-177" value="2: [B1.SoC = B1.MaxCharge] stopCharging" style="text;html=1;align=right;verticalAlign=middle;whiteSpace=wrap;rounded=0;" parent="1" vertex="1">
          <mxGeometry x="120" y="750" width="240" height="30" as="geometry" />
        </mxCell>
        <mxCell id="elsuv7XGZq4n1BTtMGS8-178" value="6: getSoC()" style="text;html=1;align=left;verticalAlign=middle;whiteSpace=wrap;rounded=0;" parent="1" vertex="1">
          <mxGeometry x="440" y="800" width="70" height="30" as="geometry" />
        </mxCell>
        <mxCell id="elsuv7XGZq4n1BTtMGS8-179" value="7: [B1.SoC = 0] stopSupplying" style="text;html=1;align=left;verticalAlign=middle;whiteSpace=wrap;rounded=0;" parent="1" vertex="1">
          <mxGeometry x="440" y="750" width="180" height="30" as="geometry" />
        </mxCell>
        <mxCell id="elsuv7XGZq4n1BTtMGS8-180" value="checkSoC" style="text;html=1;align=right;verticalAlign=middle;whiteSpace=wrap;rounded=0;" parent="1" vertex="1">
          <mxGeometry x="240" y="840" width="70" height="30" as="geometry" />
        </mxCell>
        <mxCell id="elsuv7XGZq4n1BTtMGS8-181" value="3: [B1.SoC = B1.MaxCharge] getSoC" style="text;html=1;align=right;verticalAlign=middle;whiteSpace=wrap;rounded=0;" parent="1" vertex="1">
          <mxGeometry x="150" y="920" width="210" height="30" as="geometry" />
        </mxCell>
        <mxCell id="elsuv7XGZq4n1BTtMGS8-182" value="6: [B1.SoC = 0] getSoC" style="text;html=1;align=right;verticalAlign=middle;whiteSpace=wrap;rounded=0;" parent="1" vertex="1">
          <mxGeometry x="150" y="970" width="210" height="30" as="geometry" />
        </mxCell>
        <mxCell id="elsuv7XGZq4n1BTtMGS8-183" value="7: [B1.SoC = 0 and B2.SoC &amp;gt; 0] startSupplying" style="text;html=1;align=right;verticalAlign=middle;whiteSpace=wrap;rounded=0;" parent="1" vertex="1">
          <mxGeometry x="70" y="1020" width="290" height="30" as="geometry" />
        </mxCell>
        <mxCell id="elsuv7XGZq4n1BTtMGS8-184" value="9: [B1.SoC = 0] stopSupplying" style="text;html=1;align=right;verticalAlign=middle;whiteSpace=wrap;rounded=0;" parent="1" vertex="1">
          <mxGeometry x="150" y="1070" width="210" height="30" as="geometry" />
        </mxCell>
        <mxCell id="elsuv7XGZq4n1BTtMGS8-186" value="4:&amp;nbsp;&lt;span style=&quot;text-align: right;&quot;&gt;[B1.SoC = B1.MaxCharge and B2.SoC &amp;gt; B2.&lt;/span&gt;&lt;span style=&quot;text-align: right;&quot;&gt;MaxCharge&lt;/span&gt;&lt;span style=&quot;text-align: right;&quot;&gt;] startSupplying()&lt;/span&gt;" style="text;html=1;align=left;verticalAlign=middle;whiteSpace=wrap;rounded=0;" parent="1" vertex="1">
          <mxGeometry x="440" y="920" width="290" height="30" as="geometry" />
        </mxCell>
        <mxCell id="elsuv7XGZq4n1BTtMGS8-187" value="6: [B2.SoC = B2.MaxCharge] stopChargin()" style="text;html=1;align=left;verticalAlign=middle;whiteSpace=wrap;rounded=0;" parent="1" vertex="1">
          <mxGeometry x="440" y="970" width="240" height="30" as="geometry" />
        </mxCell>
        <mxCell id="elsuv7XGZq4n1BTtMGS8-188" value="8: getSoC()" style="text;html=1;align=left;verticalAlign=middle;whiteSpace=wrap;rounded=0;" parent="1" vertex="1">
          <mxGeometry x="440" y="1020" width="70" height="30" as="geometry" />
        </mxCell>
        <mxCell id="elsuv7XGZq4n1BTtMGS8-189" value="" style="rounded=1;whiteSpace=wrap;html=1;strokeColor=#475E75;fillColor=#F5F6F7;arcSize=24;absoluteArcSize=1;imageWidth=64;imageHeight=64;strokeWidth=1.5;" parent="1" vertex="1">
          <mxGeometry x="40" y="1303" width="740" height="1877" as="geometry" />
        </mxCell>
        <mxCell id="elsuv7XGZq4n1BTtMGS8-190" value="&lt;b&gt;Activity Model&lt;/b&gt;" style="rounded=1;whiteSpace=wrap;html=1;strokeWidth=1.5;arcSize=16;perimeterSpacing=0;absoluteArcSize=1;" parent="1" vertex="1">
          <mxGeometry x="50" y="1313" width="130" height="30" as="geometry" />
        </mxCell>
        <mxCell id="elsuv7XGZq4n1BTtMGS8-191" value="" style="group;glass=0;shadow=0;fillColor=none;" parent="1" vertex="1" connectable="0">
          <mxGeometry x="620" y="1323" width="130" height="90" as="geometry" />
        </mxCell>
        <mxCell id="elsuv7XGZq4n1BTtMGS8-192" value="" style="shape=parallelogram;html=1;strokeWidth=1;perimeter=parallelogramPerimeter;whiteSpace=wrap;rounded=1;arcSize=12;size=0.23;shadow=0;" parent="elsuv7XGZq4n1BTtMGS8-191" vertex="1">
          <mxGeometry x="92.85714285714286" y="24" width="37.142857142857146" height="12" as="geometry" />
        </mxCell>
        <mxCell id="elsuv7XGZq4n1BTtMGS8-193" value="" style="shape=parallelogram;html=1;strokeWidth=1;perimeter=parallelogramPerimeter;whiteSpace=wrap;rounded=1;arcSize=12;size=0.23;shadow=0;" parent="elsuv7XGZq4n1BTtMGS8-191" vertex="1">
          <mxGeometry x="49.523809523809526" width="37.142857142857146" height="12" as="geometry" />
        </mxCell>
        <mxCell id="elsuv7XGZq4n1BTtMGS8-194" value="" style="shape=parallelogram;html=1;strokeWidth=1;perimeter=parallelogramPerimeter;whiteSpace=wrap;rounded=1;arcSize=12;size=0.23;shadow=0;" parent="elsuv7XGZq4n1BTtMGS8-191" vertex="1">
          <mxGeometry y="24" width="37.142857142857146" height="12" as="geometry" />
        </mxCell>
        <mxCell id="elsuv7XGZq4n1BTtMGS8-195" value="" style="edgeStyle=isometricEdgeStyle;endArrow=none;html=1;elbow=vertical;rounded=0;entryX=1;entryY=0.5;entryDx=0;entryDy=0;exitX=1;exitY=0.5;exitDx=0;exitDy=0;" parent="elsuv7XGZq4n1BTtMGS8-191" source="elsuv7XGZq4n1BTtMGS8-193" target="elsuv7XGZq4n1BTtMGS8-193" edge="1">
          <mxGeometry width="50" height="100" relative="1" as="geometry">
            <mxPoint x="89.76190476190476" y="72" as="sourcePoint" />
            <mxPoint x="120.71428571428572" y="12" as="targetPoint" />
            <Array as="points" />
          </mxGeometry>
        </mxCell>
        <mxCell id="elsuv7XGZq4n1BTtMGS8-196" value="" style="endArrow=open;html=1;rounded=0;endSize=2;entryX=1;entryY=0.5;entryDx=0;entryDy=0;exitX=0.598;exitY=-0.024;exitDx=0;exitDy=0;exitPerimeter=0;startArrow=open;startFill=0;endFill=0;startSize=2;" parent="elsuv7XGZq4n1BTtMGS8-191" source="elsuv7XGZq4n1BTtMGS8-192" target="elsuv7XGZq4n1BTtMGS8-193" edge="1">
          <mxGeometry width="50" height="50" relative="1" as="geometry">
            <mxPoint x="117.61904761904762" y="30" as="sourcePoint" />
            <mxPoint x="94.77619047619042" y="12" as="targetPoint" />
            <Array as="points">
              <mxPoint x="123.80952380952381" y="6" />
            </Array>
          </mxGeometry>
        </mxCell>
        <mxCell id="elsuv7XGZq4n1BTtMGS8-197" value="" style="endArrow=open;html=1;rounded=0;endSize=2;entryX=0;entryY=0.5;entryDx=0;entryDy=0;exitX=0.5;exitY=0;exitDx=0;exitDy=0;strokeColor=default;align=center;verticalAlign=middle;fontFamily=Helvetica;fontSize=11;fontColor=default;labelBackgroundColor=default;startArrow=open;startFill=0;startSize=2;endFill=0;" parent="elsuv7XGZq4n1BTtMGS8-191" source="elsuv7XGZq4n1BTtMGS8-194" target="elsuv7XGZq4n1BTtMGS8-193" edge="1">
          <mxGeometry width="50" height="50" relative="1" as="geometry">
            <mxPoint x="59.42857142857143" y="24" as="sourcePoint" />
            <mxPoint x="51.38095238095238" y="12" as="targetPoint" />
            <Array as="points">
              <mxPoint x="30.952380952380953" y="6" />
            </Array>
          </mxGeometry>
        </mxCell>
        <mxCell id="elsuv7XGZq4n1BTtMGS8-198" value="" style="shape=cube;whiteSpace=wrap;html=1;boundedLbl=1;backgroundOutline=1;darkOpacity=0.05;darkOpacity2=0.1;size=10;shadow=1;" parent="elsuv7XGZq4n1BTtMGS8-191" vertex="1">
          <mxGeometry x="52.61904761904762" y="25.2" width="24.761904761904763" height="36" as="geometry" />
        </mxCell>
        <mxCell id="elsuv7XGZq4n1BTtMGS8-199" value="" style="endArrow=block;html=1;rounded=0;exitX=0.475;exitY=0.969;exitDx=0;exitDy=0;exitPerimeter=0;entryX=0.332;entryY=-0.012;entryDx=0;entryDy=0;entryPerimeter=0;endSize=2;strokeColor=default;align=center;verticalAlign=middle;fontFamily=Helvetica;fontSize=11;fontColor=default;labelBackgroundColor=default;endFill=1;" parent="elsuv7XGZq4n1BTtMGS8-191" source="elsuv7XGZq4n1BTtMGS8-193" target="elsuv7XGZq4n1BTtMGS8-198" edge="1">
          <mxGeometry width="50" height="50" relative="1" as="geometry">
            <mxPoint x="74.28571428571429" y="78" as="sourcePoint" />
            <mxPoint x="105.23809523809524" y="48" as="targetPoint" />
          </mxGeometry>
        </mxCell>
        <mxCell id="elsuv7XGZq4n1BTtMGS8-200" value="" style="endArrow=block;html=1;rounded=0;exitX=0;exitY=0.25;exitDx=0;exitDy=0;entryX=0.753;entryY=0.083;entryDx=0;entryDy=0;entryPerimeter=0;endSize=2;strokeColor=default;align=center;verticalAlign=middle;fontFamily=Helvetica;fontSize=11;fontColor=default;labelBackgroundColor=default;endFill=1;" parent="elsuv7XGZq4n1BTtMGS8-191" source="elsuv7XGZq4n1BTtMGS8-192" target="elsuv7XGZq4n1BTtMGS8-198" edge="1">
          <mxGeometry width="50" height="50" relative="1" as="geometry">
            <mxPoint x="71.19047619047619" y="18" as="sourcePoint" />
            <mxPoint x="71.19047619047619" y="30" as="targetPoint" />
          </mxGeometry>
        </mxCell>
        <mxCell id="elsuv7XGZq4n1BTtMGS8-201" value="" style="endArrow=block;html=1;rounded=0;exitX=0.93;exitY=0.361;exitDx=0;exitDy=0;entryX=-0.052;entryY=0.085;entryDx=0;entryDy=0;entryPerimeter=0;endSize=2;exitPerimeter=0;endFill=1;" parent="elsuv7XGZq4n1BTtMGS8-191" source="elsuv7XGZq4n1BTtMGS8-194" target="elsuv7XGZq4n1BTtMGS8-198" edge="1">
          <mxGeometry width="50" height="50" relative="1" as="geometry">
            <mxPoint x="104.61904761904762" y="34.199999999999996" as="sourcePoint" />
            <mxPoint x="83.57142857142857" y="34.199999999999996" as="targetPoint" />
          </mxGeometry>
        </mxCell>
        <mxCell id="elsuv7XGZq4n1BTtMGS8-202" value="" style="shape=parallelogram;html=1;strokeWidth=1;perimeter=parallelogramPerimeter;whiteSpace=wrap;rounded=1;arcSize=12;size=0.23;shadow=1;" parent="elsuv7XGZq4n1BTtMGS8-191" vertex="1">
          <mxGeometry x="86.66666666666667" y="54" width="37.142857142857146" height="12" as="geometry" />
        </mxCell>
        <mxCell id="elsuv7XGZq4n1BTtMGS8-203" value="" style="shape=parallelogram;html=1;strokeWidth=1;perimeter=parallelogramPerimeter;whiteSpace=wrap;rounded=1;arcSize=12;size=0.23;shadow=1;strokeColor=#000000;fillColor=#000000;" parent="elsuv7XGZq4n1BTtMGS8-191" vertex="1">
          <mxGeometry x="24.761904761904763" y="78" width="37.142857142857146" height="12" as="geometry" />
        </mxCell>
        <mxCell id="elsuv7XGZq4n1BTtMGS8-204" value="" style="shape=parallelogram;html=1;strokeWidth=1;perimeter=parallelogramPerimeter;whiteSpace=wrap;rounded=1;arcSize=12;size=0.23;shadow=1;" parent="elsuv7XGZq4n1BTtMGS8-191" vertex="1">
          <mxGeometry y="54" width="37.142857142857146" height="12" as="geometry" />
        </mxCell>
        <mxCell id="elsuv7XGZq4n1BTtMGS8-205" value="" style="edgeStyle=isometricEdgeStyle;endArrow=none;html=1;elbow=vertical;rounded=0;entryX=1;entryY=0.5;entryDx=0;entryDy=0;exitX=1;exitY=0.5;exitDx=0;exitDy=0;" parent="elsuv7XGZq4n1BTtMGS8-191" source="elsuv7XGZq4n1BTtMGS8-203" target="elsuv7XGZq4n1BTtMGS8-203" edge="1">
          <mxGeometry width="50" height="100" relative="1" as="geometry">
            <mxPoint x="83.57142857142857" y="102" as="sourcePoint" />
            <mxPoint x="114.52380952380953" y="42" as="targetPoint" />
            <Array as="points" />
          </mxGeometry>
        </mxCell>
        <mxCell id="elsuv7XGZq4n1BTtMGS8-206" value="" style="endArrow=open;html=1;rounded=0;endSize=2;entryX=1;entryY=0.5;entryDx=0;entryDy=0;exitX=0.421;exitY=1.024;exitDx=0;exitDy=0;exitPerimeter=0;strokeColor=default;align=center;verticalAlign=middle;fontFamily=Helvetica;fontSize=11;fontColor=default;labelBackgroundColor=default;startArrow=open;startFill=0;startSize=2;endFill=0;" parent="elsuv7XGZq4n1BTtMGS8-191" source="elsuv7XGZq4n1BTtMGS8-202" target="elsuv7XGZq4n1BTtMGS8-203" edge="1">
          <mxGeometry width="50" height="50" relative="1" as="geometry">
            <mxPoint x="111.42857142857143" y="60" as="sourcePoint" />
            <mxPoint x="88.58571428571423" y="42" as="targetPoint" />
            <Array as="points">
              <mxPoint x="92.85714285714286" y="84" />
            </Array>
          </mxGeometry>
        </mxCell>
        <mxCell id="elsuv7XGZq4n1BTtMGS8-207" value="" style="endArrow=open;html=1;rounded=0;endSize=2;entryX=0;entryY=0.5;entryDx=0;entryDy=0;exitX=0.405;exitY=1.002;exitDx=0;exitDy=0;exitPerimeter=0;strokeColor=default;align=center;verticalAlign=middle;fontFamily=Helvetica;fontSize=11;fontColor=default;labelBackgroundColor=default;startArrow=open;startFill=0;startSize=2;endFill=0;" parent="elsuv7XGZq4n1BTtMGS8-191" source="elsuv7XGZq4n1BTtMGS8-204" target="elsuv7XGZq4n1BTtMGS8-203" edge="1">
          <mxGeometry width="50" height="50" relative="1" as="geometry">
            <mxPoint x="53.23809523809524" y="54" as="sourcePoint" />
            <mxPoint x="45.19047619047619" y="42" as="targetPoint" />
            <Array as="points">
              <mxPoint y="84" />
            </Array>
          </mxGeometry>
        </mxCell>
        <mxCell id="elsuv7XGZq4n1BTtMGS8-208" value="" style="endArrow=block;html=1;rounded=0;exitX=0.605;exitY=-0.013;exitDx=0;exitDy=0;exitPerimeter=0;entryX=0.326;entryY=1.008;entryDx=0;entryDy=0;entryPerimeter=0;endSize=2;strokeColor=default;align=center;verticalAlign=middle;fontFamily=Helvetica;fontSize=11;fontColor=default;labelBackgroundColor=default;endFill=1;" parent="elsuv7XGZq4n1BTtMGS8-191" source="elsuv7XGZq4n1BTtMGS8-203" target="elsuv7XGZq4n1BTtMGS8-198" edge="1">
          <mxGeometry width="50" height="50" relative="1" as="geometry">
            <mxPoint x="68.0952380952381" y="108" as="sourcePoint" />
            <mxPoint x="58.80952380952381" y="55.199999999999996" as="targetPoint" />
          </mxGeometry>
        </mxCell>
        <mxCell id="elsuv7XGZq4n1BTtMGS8-209" value="" style="endArrow=block;html=1;rounded=0;exitX=0;exitY=0.25;exitDx=0;exitDy=0;endSize=2;entryX=1.006;entryY=0.917;entryDx=0;entryDy=0;entryPerimeter=0;strokeColor=default;align=center;verticalAlign=middle;fontFamily=Helvetica;fontSize=11;fontColor=default;labelBackgroundColor=default;endFill=1;" parent="elsuv7XGZq4n1BTtMGS8-191" source="elsuv7XGZq4n1BTtMGS8-202" target="elsuv7XGZq4n1BTtMGS8-198" edge="1">
          <mxGeometry width="50" height="50" relative="1" as="geometry">
            <mxPoint x="65" y="48" as="sourcePoint" />
            <mxPoint x="80.47619047619048" y="58.199999999999996" as="targetPoint" />
          </mxGeometry>
        </mxCell>
        <mxCell id="elsuv7XGZq4n1BTtMGS8-210" value="" style="endArrow=block;html=1;rounded=0;exitX=0.93;exitY=0.361;exitDx=0;exitDy=0;entryX=0.047;entryY=0.917;entryDx=0;entryDy=0;entryPerimeter=0;endSize=2;exitPerimeter=0;strokeColor=default;align=center;verticalAlign=middle;fontFamily=Helvetica;fontSize=11;fontColor=default;labelBackgroundColor=default;endFill=1;" parent="elsuv7XGZq4n1BTtMGS8-191" source="elsuv7XGZq4n1BTtMGS8-204" target="elsuv7XGZq4n1BTtMGS8-198" edge="1">
          <mxGeometry width="50" height="50" relative="1" as="geometry">
            <mxPoint x="98.42857142857143" y="64.2" as="sourcePoint" />
            <mxPoint x="48.285714285714285" y="58.199999999999996" as="targetPoint" />
          </mxGeometry>
        </mxCell>
        <mxCell id="elsuv7XGZq4n1BTtMGS8-211" value="" style="endArrow=open;startArrow=open;html=1;rounded=0;entryX=0.5;entryY=1;entryDx=0;entryDy=0;exitX=0.5;exitY=0;exitDx=0;exitDy=0;endSize=2;startSize=2;startFill=0;endFill=0;" parent="elsuv7XGZq4n1BTtMGS8-191" source="elsuv7XGZq4n1BTtMGS8-204" target="elsuv7XGZq4n1BTtMGS8-194" edge="1">
          <mxGeometry width="50" height="50" relative="1" as="geometry">
            <mxPoint x="12.380952380952381" y="60" as="sourcePoint" />
            <mxPoint x="43.333333333333336" y="30" as="targetPoint" />
          </mxGeometry>
        </mxCell>
        <mxCell id="elsuv7XGZq4n1BTtMGS8-212" value="" style="endArrow=open;startArrow=open;html=1;rounded=0;entryX=0.409;entryY=0.996;entryDx=0;entryDy=0;exitX=0.572;exitY=0.009;exitDx=0;exitDy=0;endSize=2;startSize=2;startFill=0;endFill=0;entryPerimeter=0;exitPerimeter=0;" parent="elsuv7XGZq4n1BTtMGS8-191" source="elsuv7XGZq4n1BTtMGS8-202" target="elsuv7XGZq4n1BTtMGS8-192" edge="1">
          <mxGeometry width="50" height="50" relative="1" as="geometry">
            <mxPoint x="111.31095238095239" y="54" as="sourcePoint" />
            <mxPoint x="111.31095238095239" y="36" as="targetPoint" />
          </mxGeometry>
        </mxCell>
        <mxCell id="elsuv7XGZq4n1BTtMGS8-213" value="&lt;font size=&quot;1&quot; color=&quot;#475f75&quot;&gt;&lt;b style=&quot;&quot;&gt;UML Activity Diagram&lt;/b&gt;&lt;/font&gt;" style="rounded=1;whiteSpace=wrap;html=1;arcSize=50;strokeColor=#475f75;fillColor=default;strokeWidth=1.5;" parent="1" vertex="1">
          <mxGeometry x="193" y="1320" width="107" height="16" as="geometry" />
        </mxCell>
        <mxCell id="elsuv7XGZq4n1BTtMGS8-214" value="CheckSoC" style="swimlane;html=1;childLayout=stackLayout;startSize=20;rounded=0;shadow=0;comic=0;labelBackgroundColor=none;strokeWidth=1;fontFamily=Verdana;fontSize=12;align=center;" parent="1" vertex="1">
          <mxGeometry x="50" y="1423" width="720" height="1740" as="geometry">
            <mxRectangle x="45" y="640" width="70" height="30" as="alternateBounds" />
          </mxGeometry>
        </mxCell>
        <mxCell id="elsuv7XGZq4n1BTtMGS8-215" value=":BatteryPack" style="swimlane;html=1;startSize=20;" parent="elsuv7XGZq4n1BTtMGS8-214" vertex="1">
          <mxGeometry y="20" width="410" height="1720" as="geometry">
            <mxRectangle y="20" width="40" height="420" as="alternateBounds" />
          </mxGeometry>
        </mxCell>
        <mxCell id="elsuv7XGZq4n1BTtMGS8-216" value="set state to B1-Charging" style="rounded=1;whiteSpace=wrap;html=1;shadow=0;comic=0;labelBackgroundColor=none;strokeWidth=1;fontFamily=Verdana;fontSize=12;align=center;arcSize=50;" parent="elsuv7XGZq4n1BTtMGS8-215" vertex="1">
          <mxGeometry x="115" y="257" width="170" height="30" as="geometry" />
        </mxCell>
        <mxCell id="elsuv7XGZq4n1BTtMGS8-297" style="edgeStyle=orthogonalEdgeStyle;rounded=0;orthogonalLoop=1;jettySize=auto;html=1;entryX=0.5;entryY=0;entryDx=0;entryDy=0;exitX=0;exitY=0.5;exitDx=0;exitDy=0;" parent="elsuv7XGZq4n1BTtMGS8-215" source="elsuv7XGZq4n1BTtMGS8-275" target="elsuv7XGZq4n1BTtMGS8-296" edge="1">
          <mxGeometry relative="1" as="geometry">
            <Array as="points">
              <mxPoint x="10" y="527" />
              <mxPoint x="10" y="877" />
              <mxPoint x="200" y="877" />
            </Array>
          </mxGeometry>
        </mxCell>
        <mxCell id="elsuv7XGZq4n1BTtMGS8-298" value="False" style="edgeLabel;html=1;align=center;verticalAlign=middle;resizable=0;points=[];labelBackgroundColor=none;" parent="elsuv7XGZq4n1BTtMGS8-297" vertex="1" connectable="0">
          <mxGeometry x="-0.9282" relative="1" as="geometry">
            <mxPoint y="-10" as="offset" />
          </mxGeometry>
        </mxCell>
        <mxCell id="elsuv7XGZq4n1BTtMGS8-299" value="&lt;span style=&quot;&quot;&gt;B1-Supplying?&lt;/span&gt;" style="edgeLabel;html=1;align=center;verticalAlign=middle;resizable=0;points=[];labelBackgroundColor=none;" parent="elsuv7XGZq4n1BTtMGS8-297" vertex="1" connectable="0">
          <mxGeometry x="0.9385" relative="1" as="geometry">
            <mxPoint x="-40" as="offset" />
          </mxGeometry>
        </mxCell>
        <mxCell id="elsuv7XGZq4n1BTtMGS8-275" value="" style="rhombus;whiteSpace=wrap;html=1;" parent="elsuv7XGZq4n1BTtMGS8-215" vertex="1">
          <mxGeometry x="180" y="507" width="40" height="40" as="geometry" />
        </mxCell>
        <mxCell id="elsuv7XGZq4n1BTtMGS8-283" value="" style="rhombus;whiteSpace=wrap;html=1;" parent="elsuv7XGZq4n1BTtMGS8-215" vertex="1">
          <mxGeometry x="180" y="627" width="40" height="40" as="geometry" />
        </mxCell>
        <mxCell id="elsuv7XGZq4n1BTtMGS8-289" value="set state to B2-Charging" style="rounded=1;whiteSpace=wrap;html=1;shadow=0;comic=0;labelBackgroundColor=none;strokeWidth=1;fontFamily=Verdana;fontSize=12;align=center;arcSize=50;" parent="elsuv7XGZq4n1BTtMGS8-215" vertex="1">
          <mxGeometry x="220" y="717" width="170" height="30" as="geometry" />
        </mxCell>
        <mxCell id="elsuv7XGZq4n1BTtMGS8-296" value="" style="rhombus;whiteSpace=wrap;html=1;" parent="elsuv7XGZq4n1BTtMGS8-215" vertex="1">
          <mxGeometry x="180" y="927" width="40" height="40" as="geometry" />
        </mxCell>
        <mxCell id="elsuv7XGZq4n1BTtMGS8-287" value="set state to Idle" style="rounded=1;whiteSpace=wrap;html=1;shadow=0;comic=0;labelBackgroundColor=none;strokeWidth=1;fontFamily=Verdana;fontSize=12;align=center;arcSize=50;" parent="elsuv7XGZq4n1BTtMGS8-215" vertex="1">
          <mxGeometry x="20" y="777" width="170" height="30" as="geometry" />
        </mxCell>
        <mxCell id="elsuv7XGZq4n1BTtMGS8-338" value="set state to Idle" style="rounded=1;whiteSpace=wrap;html=1;shadow=0;comic=0;labelBackgroundColor=none;strokeWidth=1;fontFamily=Verdana;fontSize=12;align=center;arcSize=50;" parent="elsuv7XGZq4n1BTtMGS8-215" vertex="1">
          <mxGeometry x="30" y="1627" width="170" height="30" as="geometry" />
        </mxCell>
        <mxCell id="elsuv7XGZq4n1BTtMGS8-217" value="B1:Battery" style="swimlane;html=1;startSize=20;" parent="elsuv7XGZq4n1BTtMGS8-214" vertex="1">
          <mxGeometry x="410" y="20" width="160" height="1720" as="geometry" />
        </mxCell>
        <mxCell id="elsuv7XGZq4n1BTtMGS8-246" value="getSoC" style="rounded=1;whiteSpace=wrap;html=1;shadow=0;comic=0;labelBackgroundColor=none;strokeWidth=1;fontFamily=Verdana;fontSize=12;align=center;arcSize=50;" parent="elsuv7XGZq4n1BTtMGS8-217" vertex="1">
          <mxGeometry x="30" y="92" width="100" height="30" as="geometry" />
        </mxCell>
        <mxCell id="elsuv7XGZq4n1BTtMGS8-223" value="B1:Battery" style="swimlane;html=1;startSize=20;" parent="elsuv7XGZq4n1BTtMGS8-214" vertex="1">
          <mxGeometry x="570" y="20" width="150" height="1720" as="geometry" />
        </mxCell>
        <mxCell id="elsuv7XGZq4n1BTtMGS8-260" value="getSoC" style="rounded=1;whiteSpace=wrap;html=1;shadow=0;comic=0;labelBackgroundColor=none;strokeWidth=1;fontFamily=Verdana;fontSize=12;align=center;arcSize=50;" parent="elsuv7XGZq4n1BTtMGS8-223" vertex="1">
          <mxGeometry x="28.100000000000023" y="185" width="100" height="30" as="geometry" />
        </mxCell>
        <mxCell id="elsuv7XGZq4n1BTtMGS8-290" value="startCharging" style="rounded=1;whiteSpace=wrap;html=1;shadow=0;comic=0;labelBackgroundColor=none;strokeWidth=1;fontFamily=Verdana;fontSize=12;align=center;arcSize=50;" parent="elsuv7XGZq4n1BTtMGS8-223" vertex="1">
          <mxGeometry x="28.100000000000023" y="632" width="100" height="30" as="geometry" />
        </mxCell>
        <mxCell id="elsuv7XGZq4n1BTtMGS8-291" style="edgeStyle=orthogonalEdgeStyle;rounded=0;orthogonalLoop=1;jettySize=auto;html=1;entryX=0;entryY=0.5;entryDx=0;entryDy=0;" parent="elsuv7XGZq4n1BTtMGS8-214" source="elsuv7XGZq4n1BTtMGS8-283" target="elsuv7XGZq4n1BTtMGS8-290" edge="1">
          <mxGeometry relative="1" as="geometry" />
        </mxCell>
        <mxCell id="elsuv7XGZq4n1BTtMGS8-292" value="True" style="edgeLabel;html=1;align=center;verticalAlign=middle;resizable=0;points=[];labelBackgroundColor=none;" parent="elsuv7XGZq4n1BTtMGS8-291" vertex="1" connectable="0">
          <mxGeometry x="-0.7872" relative="1" as="geometry">
            <mxPoint x="-20" y="-10" as="offset" />
          </mxGeometry>
        </mxCell>
        <mxCell id="elsuv7XGZq4n1BTtMGS8-293" style="edgeStyle=orthogonalEdgeStyle;rounded=0;orthogonalLoop=1;jettySize=auto;html=1;entryX=0.5;entryY=0;entryDx=0;entryDy=0;" parent="elsuv7XGZq4n1BTtMGS8-214" source="elsuv7XGZq4n1BTtMGS8-290" target="elsuv7XGZq4n1BTtMGS8-289" edge="1">
          <mxGeometry relative="1" as="geometry">
            <Array as="points">
              <mxPoint x="648" y="707" />
              <mxPoint x="305" y="707" />
            </Array>
          </mxGeometry>
        </mxCell>
        <mxCell id="elsuv7XGZq4n1BTtMGS8-261" style="edgeStyle=orthogonalEdgeStyle;rounded=0;orthogonalLoop=1;jettySize=auto;html=1;entryX=0;entryY=0.5;entryDx=0;entryDy=0;" parent="1" source="elsuv7XGZq4n1BTtMGS8-226" target="elsuv7XGZq4n1BTtMGS8-260" edge="1">
          <mxGeometry relative="1" as="geometry" />
        </mxCell>
        <mxCell id="elsuv7XGZq4n1BTtMGS8-226" value="stopCharging" style="rounded=1;whiteSpace=wrap;html=1;shadow=0;comic=0;labelBackgroundColor=none;strokeWidth=1;fontFamily=Verdana;fontSize=12;align=center;arcSize=50;" parent="1" vertex="1">
          <mxGeometry x="490" y="1628" width="100" height="30" as="geometry" />
        </mxCell>
        <mxCell id="elsuv7XGZq4n1BTtMGS8-219" style="edgeStyle=orthogonalEdgeStyle;rounded=0;orthogonalLoop=1;jettySize=auto;html=1;entryX=0.5;entryY=0;entryDx=0;entryDy=0;endArrow=open;endFill=0;" parent="1" source="elsuv7XGZq4n1BTtMGS8-220" edge="1">
          <mxGeometry relative="1" as="geometry">
            <mxPoint x="250" y="1530" as="targetPoint" />
          </mxGeometry>
        </mxCell>
        <mxCell id="elsuv7XGZq4n1BTtMGS8-252" value="B1-Charging?" style="edgeLabel;html=1;align=center;verticalAlign=middle;resizable=0;points=[];labelBackgroundColor=none;" parent="elsuv7XGZq4n1BTtMGS8-219" vertex="1" connectable="0">
          <mxGeometry x="-0.0471" relative="1" as="geometry">
            <mxPoint x="-40" as="offset" />
          </mxGeometry>
        </mxCell>
        <mxCell id="elsuv7XGZq4n1BTtMGS8-220" value="" style="ellipse;whiteSpace=wrap;html=1;rounded=0;shadow=0;comic=0;labelBackgroundColor=none;strokeWidth=1;fillColor=#000000;fontFamily=Verdana;fontSize=12;align=center;" parent="1" vertex="1">
          <mxGeometry x="238.5" y="1480" width="23" height="23" as="geometry" />
        </mxCell>
        <mxCell id="elsuv7XGZq4n1BTtMGS8-247" style="edgeStyle=orthogonalEdgeStyle;rounded=0;orthogonalLoop=1;jettySize=auto;html=1;endArrow=open;endFill=0;" parent="1" source="elsuv7XGZq4n1BTtMGS8-245" target="elsuv7XGZq4n1BTtMGS8-246" edge="1">
          <mxGeometry relative="1" as="geometry" />
        </mxCell>
        <mxCell id="elsuv7XGZq4n1BTtMGS8-251" value="True" style="edgeLabel;html=1;align=center;verticalAlign=middle;resizable=0;points=[];labelBackgroundColor=none;" parent="elsuv7XGZq4n1BTtMGS8-247" vertex="1" connectable="0">
          <mxGeometry x="-0.6627" y="-1" relative="1" as="geometry">
            <mxPoint x="2" y="-11" as="offset" />
          </mxGeometry>
        </mxCell>
        <mxCell id="elsuv7XGZq4n1BTtMGS8-276" style="edgeStyle=orthogonalEdgeStyle;rounded=0;orthogonalLoop=1;jettySize=auto;html=1;entryX=0.5;entryY=0;entryDx=0;entryDy=0;" parent="1" source="elsuv7XGZq4n1BTtMGS8-245" target="elsuv7XGZq4n1BTtMGS8-275" edge="1">
          <mxGeometry relative="1" as="geometry">
            <Array as="points">
              <mxPoint x="70" y="1550" />
              <mxPoint x="70" y="1920" />
              <mxPoint x="250" y="1920" />
            </Array>
          </mxGeometry>
        </mxCell>
        <mxCell id="elsuv7XGZq4n1BTtMGS8-277" value="Flase" style="edgeLabel;html=1;align=center;verticalAlign=middle;resizable=0;points=[];labelBackgroundColor=none;" parent="elsuv7XGZq4n1BTtMGS8-276" vertex="1" connectable="0">
          <mxGeometry x="-0.8769" y="1" relative="1" as="geometry">
            <mxPoint x="8" y="-11" as="offset" />
          </mxGeometry>
        </mxCell>
        <mxCell id="elsuv7XGZq4n1BTtMGS8-278" value="B2-Charging?" style="edgeLabel;html=1;align=center;verticalAlign=middle;resizable=0;points=[];labelBackgroundColor=none;" parent="elsuv7XGZq4n1BTtMGS8-276" vertex="1" connectable="0">
          <mxGeometry x="0.9438" relative="1" as="geometry">
            <mxPoint x="-40" as="offset" />
          </mxGeometry>
        </mxCell>
        <mxCell id="elsuv7XGZq4n1BTtMGS8-245" value="" style="rhombus;whiteSpace=wrap;html=1;" parent="1" vertex="1">
          <mxGeometry x="230" y="1530" width="40" height="40" as="geometry" />
        </mxCell>
        <mxCell id="elsuv7XGZq4n1BTtMGS8-256" style="edgeStyle=orthogonalEdgeStyle;rounded=0;orthogonalLoop=1;jettySize=auto;html=1;entryX=0.5;entryY=0;entryDx=0;entryDy=0;" parent="1" source="elsuv7XGZq4n1BTtMGS8-248" target="elsuv7XGZq4n1BTtMGS8-216" edge="1">
          <mxGeometry relative="1" as="geometry" />
        </mxCell>
        <mxCell id="elsuv7XGZq4n1BTtMGS8-257" value="True" style="edgeLabel;html=1;align=center;verticalAlign=middle;resizable=0;points=[];labelBackgroundColor=none;" parent="elsuv7XGZq4n1BTtMGS8-256" vertex="1" connectable="0">
          <mxGeometry x="-0.3116" relative="1" as="geometry">
            <mxPoint x="-19" as="offset" />
          </mxGeometry>
        </mxCell>
        <mxCell id="elsuv7XGZq4n1BTtMGS8-258" style="edgeStyle=orthogonalEdgeStyle;rounded=0;orthogonalLoop=1;jettySize=auto;html=1;entryX=0;entryY=0.5;entryDx=0;entryDy=0;" parent="1" source="elsuv7XGZq4n1BTtMGS8-248" target="elsuv7XGZq4n1BTtMGS8-226" edge="1">
          <mxGeometry relative="1" as="geometry" />
        </mxCell>
        <mxCell id="elsuv7XGZq4n1BTtMGS8-259" value="False" style="edgeLabel;html=1;align=center;verticalAlign=middle;resizable=0;points=[];labelBackgroundColor=none;" parent="elsuv7XGZq4n1BTtMGS8-258" vertex="1" connectable="0">
          <mxGeometry x="-0.7017" y="1" relative="1" as="geometry">
            <mxPoint x="-3" y="-12" as="offset" />
          </mxGeometry>
        </mxCell>
        <mxCell id="elsuv7XGZq4n1BTtMGS8-248" value="" style="rhombus;whiteSpace=wrap;html=1;" parent="1" vertex="1">
          <mxGeometry x="230" y="1623" width="40" height="40" as="geometry" />
        </mxCell>
        <mxCell id="elsuv7XGZq4n1BTtMGS8-254" style="edgeStyle=orthogonalEdgeStyle;rounded=0;orthogonalLoop=1;jettySize=auto;html=1;entryX=0.5;entryY=0;entryDx=0;entryDy=0;exitX=0.5;exitY=1;exitDx=0;exitDy=0;" parent="1" source="elsuv7XGZq4n1BTtMGS8-246" target="elsuv7XGZq4n1BTtMGS8-248" edge="1">
          <mxGeometry relative="1" as="geometry" />
        </mxCell>
        <mxCell id="elsuv7XGZq4n1BTtMGS8-255" value="&lt;span style=&quot;&quot;&gt;B1.SoC &amp;lt; B1.MaxCharge?&lt;/span&gt;" style="edgeLabel;html=1;align=center;verticalAlign=middle;resizable=0;points=[];labelBackgroundColor=none;" parent="elsuv7XGZq4n1BTtMGS8-254" vertex="1" connectable="0">
          <mxGeometry x="0.0546" y="1" relative="1" as="geometry">
            <mxPoint x="-211" y="15" as="offset" />
          </mxGeometry>
        </mxCell>
        <mxCell id="elsuv7XGZq4n1BTtMGS8-266" style="edgeStyle=orthogonalEdgeStyle;rounded=0;orthogonalLoop=1;jettySize=auto;html=1;entryX=0;entryY=0.5;entryDx=0;entryDy=0;" parent="1" source="elsuv7XGZq4n1BTtMGS8-262" target="elsuv7XGZq4n1BTtMGS8-265" edge="1">
          <mxGeometry relative="1" as="geometry" />
        </mxCell>
        <mxCell id="elsuv7XGZq4n1BTtMGS8-270" value="True" style="edgeLabel;html=1;align=center;verticalAlign=middle;resizable=0;points=[];labelBackgroundColor=none;" parent="elsuv7XGZq4n1BTtMGS8-266" vertex="1" connectable="0">
          <mxGeometry x="-0.8476" relative="1" as="geometry">
            <mxPoint x="-9" y="-15" as="offset" />
          </mxGeometry>
        </mxCell>
        <mxCell id="elsuv7XGZq4n1BTtMGS8-273" style="edgeStyle=orthogonalEdgeStyle;rounded=0;orthogonalLoop=1;jettySize=auto;html=1;entryX=0.5;entryY=0;entryDx=0;entryDy=0;exitX=0;exitY=0.5;exitDx=0;exitDy=0;" parent="1" source="elsuv7XGZq4n1BTtMGS8-262" target="elsuv7XGZq4n1BTtMGS8-267" edge="1">
          <mxGeometry relative="1" as="geometry" />
        </mxCell>
        <mxCell id="elsuv7XGZq4n1BTtMGS8-274" value="Flase" style="edgeLabel;html=1;align=center;verticalAlign=middle;resizable=0;points=[];labelBackgroundColor=none;" parent="elsuv7XGZq4n1BTtMGS8-273" vertex="1" connectable="0">
          <mxGeometry x="-0.745" relative="1" as="geometry">
            <mxPoint y="-10" as="offset" />
          </mxGeometry>
        </mxCell>
        <mxCell id="elsuv7XGZq4n1BTtMGS8-262" value="" style="rhombus;whiteSpace=wrap;html=1;" parent="1" vertex="1">
          <mxGeometry x="230" y="1770" width="40" height="40" as="geometry" />
        </mxCell>
        <mxCell id="elsuv7XGZq4n1BTtMGS8-263" style="edgeStyle=orthogonalEdgeStyle;rounded=0;orthogonalLoop=1;jettySize=auto;html=1;entryX=0.5;entryY=0;entryDx=0;entryDy=0;exitX=0.5;exitY=1;exitDx=0;exitDy=0;" parent="1" source="elsuv7XGZq4n1BTtMGS8-260" target="elsuv7XGZq4n1BTtMGS8-262" edge="1">
          <mxGeometry relative="1" as="geometry">
            <Array as="points">
              <mxPoint x="698" y="1740" />
              <mxPoint x="250" y="1740" />
            </Array>
          </mxGeometry>
        </mxCell>
        <mxCell id="elsuv7XGZq4n1BTtMGS8-264" value="B2.SoC &amp;lt; B2.MaxCharge?" style="edgeLabel;html=1;align=center;verticalAlign=middle;resizable=0;points=[];labelBackgroundColor=none;" parent="1" vertex="1" connectable="0">
          <mxGeometry x="169.99857142857147" y="1749.9985714285713" as="geometry">
            <mxPoint x="6" y="2" as="offset" />
          </mxGeometry>
        </mxCell>
        <mxCell id="elsuv7XGZq4n1BTtMGS8-269" style="edgeStyle=orthogonalEdgeStyle;rounded=0;orthogonalLoop=1;jettySize=auto;html=1;entryX=0.5;entryY=0;entryDx=0;entryDy=0;exitX=0.5;exitY=1;exitDx=0;exitDy=0;" parent="1" source="elsuv7XGZq4n1BTtMGS8-265" target="elsuv7XGZq4n1BTtMGS8-268" edge="1">
          <mxGeometry relative="1" as="geometry" />
        </mxCell>
        <mxCell id="elsuv7XGZq4n1BTtMGS8-265" value="startCharging" style="rounded=1;whiteSpace=wrap;html=1;shadow=0;comic=0;labelBackgroundColor=none;strokeWidth=1;fontFamily=Verdana;fontSize=12;align=center;arcSize=50;" parent="1" vertex="1">
          <mxGeometry x="648.1" y="1775" width="100" height="30" as="geometry" />
        </mxCell>
        <mxCell id="elsuv7XGZq4n1BTtMGS8-267" value="set state to B1-Charging" style="rounded=1;whiteSpace=wrap;html=1;shadow=0;comic=0;labelBackgroundColor=none;strokeWidth=1;fontFamily=Verdana;fontSize=12;align=center;arcSize=50;" parent="1" vertex="1">
          <mxGeometry x="80" y="1860" width="170" height="30" as="geometry" />
        </mxCell>
        <mxCell id="elsuv7XGZq4n1BTtMGS8-268" value="set state to B2-Charging" style="rounded=1;whiteSpace=wrap;html=1;shadow=0;comic=0;labelBackgroundColor=none;strokeWidth=1;fontFamily=Verdana;fontSize=12;align=center;arcSize=50;" parent="1" vertex="1">
          <mxGeometry x="270" y="1860" width="170" height="30" as="geometry" />
        </mxCell>
        <mxCell id="elsuv7XGZq4n1BTtMGS8-284" style="edgeStyle=orthogonalEdgeStyle;rounded=0;orthogonalLoop=1;jettySize=auto;html=1;entryX=0.5;entryY=0;entryDx=0;entryDy=0;" parent="1" source="elsuv7XGZq4n1BTtMGS8-279" target="elsuv7XGZq4n1BTtMGS8-283" edge="1">
          <mxGeometry relative="1" as="geometry">
            <Array as="points">
              <mxPoint x="695" y="2030" />
              <mxPoint x="250" y="2030" />
            </Array>
          </mxGeometry>
        </mxCell>
        <mxCell id="elsuv7XGZq4n1BTtMGS8-285" value="B2.SoC &amp;lt; B2.MaxCharge?" style="edgeLabel;html=1;align=center;verticalAlign=middle;resizable=0;points=[];labelBackgroundColor=none;" parent="elsuv7XGZq4n1BTtMGS8-284" vertex="1" connectable="0">
          <mxGeometry x="0.9042" y="1" relative="1" as="geometry">
            <mxPoint x="-71" as="offset" />
          </mxGeometry>
        </mxCell>
        <mxCell id="elsuv7XGZq4n1BTtMGS8-279" value="getSoC" style="rounded=1;whiteSpace=wrap;html=1;shadow=0;comic=0;labelBackgroundColor=none;strokeWidth=1;fontFamily=Verdana;fontSize=12;align=center;arcSize=50;" parent="1" vertex="1">
          <mxGeometry x="645" y="1955" width="100" height="30" as="geometry" />
        </mxCell>
        <mxCell id="elsuv7XGZq4n1BTtMGS8-280" style="edgeStyle=orthogonalEdgeStyle;rounded=0;orthogonalLoop=1;jettySize=auto;html=1;entryX=0;entryY=0.5;entryDx=0;entryDy=0;" parent="1" source="elsuv7XGZq4n1BTtMGS8-275" target="elsuv7XGZq4n1BTtMGS8-279" edge="1">
          <mxGeometry relative="1" as="geometry" />
        </mxCell>
        <mxCell id="elsuv7XGZq4n1BTtMGS8-281" value="True" style="edgeLabel;html=1;align=center;verticalAlign=middle;resizable=0;points=[];labelBackgroundColor=none;" parent="elsuv7XGZq4n1BTtMGS8-280" vertex="1" connectable="0">
          <mxGeometry x="-0.8555" y="-1" relative="1" as="geometry">
            <mxPoint x="-7" y="-11" as="offset" />
          </mxGeometry>
        </mxCell>
        <mxCell id="elsuv7XGZq4n1BTtMGS8-301" value="set state to B1-Supplying" style="rounded=1;whiteSpace=wrap;html=1;shadow=0;comic=0;labelBackgroundColor=none;strokeWidth=1;fontFamily=Verdana;fontSize=12;align=center;arcSize=50;" parent="1" vertex="1">
          <mxGeometry x="165" y="2540" width="170" height="30" as="geometry" />
        </mxCell>
        <mxCell id="elsuv7XGZq4n1BTtMGS8-352" style="edgeStyle=orthogonalEdgeStyle;rounded=0;orthogonalLoop=1;jettySize=auto;html=1;entryX=0.25;entryY=0;entryDx=0;entryDy=0;" parent="1" source="elsuv7XGZq4n1BTtMGS8-303" target="elsuv7XGZq4n1BTtMGS8-338" edge="1">
          <mxGeometry relative="1" as="geometry">
            <Array as="points">
              <mxPoint x="123" y="2810" />
              <mxPoint x="123" y="2950" />
            </Array>
          </mxGeometry>
        </mxCell>
        <mxCell id="elsuv7XGZq4n1BTtMGS8-353" value="False" style="edgeLabel;html=1;align=center;verticalAlign=middle;resizable=0;points=[];labelBackgroundColor=none;" parent="elsuv7XGZq4n1BTtMGS8-352" vertex="1" connectable="0">
          <mxGeometry x="-0.8704" y="-1" relative="1" as="geometry">
            <mxPoint y="-9" as="offset" />
          </mxGeometry>
        </mxCell>
        <mxCell id="elsuv7XGZq4n1BTtMGS8-303" value="" style="rhombus;whiteSpace=wrap;html=1;" parent="1" vertex="1">
          <mxGeometry x="230" y="2790" width="40" height="40" as="geometry" />
        </mxCell>
        <mxCell id="elsuv7XGZq4n1BTtMGS8-349" style="edgeStyle=orthogonalEdgeStyle;rounded=0;orthogonalLoop=1;jettySize=auto;html=1;entryX=0.5;entryY=0;entryDx=0;entryDy=0;" parent="1" source="elsuv7XGZq4n1BTtMGS8-304" target="elsuv7XGZq4n1BTtMGS8-348" edge="1">
          <mxGeometry relative="1" as="geometry">
            <Array as="points">
              <mxPoint x="250" y="3040" />
              <mxPoint x="698" y="3040" />
            </Array>
          </mxGeometry>
        </mxCell>
        <mxCell id="elsuv7XGZq4n1BTtMGS8-350" value="False" style="edgeLabel;html=1;align=center;verticalAlign=middle;resizable=0;points=[];labelBackgroundColor=none;" parent="elsuv7XGZq4n1BTtMGS8-349" vertex="1" connectable="0">
          <mxGeometry x="-0.955" y="-2" relative="1" as="geometry">
            <mxPoint x="18" as="offset" />
          </mxGeometry>
        </mxCell>
        <mxCell id="elsuv7XGZq4n1BTtMGS8-304" value="" style="rhombus;whiteSpace=wrap;html=1;" parent="1" vertex="1">
          <mxGeometry x="230" y="2910" width="40" height="40" as="geometry" />
        </mxCell>
        <mxCell id="elsuv7XGZq4n1BTtMGS8-305" value="set state to B2-Charging" style="rounded=1;whiteSpace=wrap;html=1;shadow=0;comic=0;labelBackgroundColor=none;strokeWidth=1;fontFamily=Verdana;fontSize=12;align=center;arcSize=50;" parent="1" vertex="1">
          <mxGeometry x="270" y="3000" width="170" height="30" as="geometry" />
        </mxCell>
        <mxCell id="elsuv7XGZq4n1BTtMGS8-306" value="getSoC" style="rounded=1;whiteSpace=wrap;html=1;shadow=0;comic=0;labelBackgroundColor=none;strokeWidth=1;fontFamily=Verdana;fontSize=12;align=center;arcSize=50;" parent="1" vertex="1">
          <mxGeometry x="490" y="2375" width="100" height="30" as="geometry" />
        </mxCell>
        <mxCell id="elsuv7XGZq4n1BTtMGS8-307" value="getSoC" style="rounded=1;whiteSpace=wrap;html=1;shadow=0;comic=0;labelBackgroundColor=none;strokeWidth=1;fontFamily=Verdana;fontSize=12;align=center;arcSize=50;" parent="1" vertex="1">
          <mxGeometry x="648.1" y="2468" width="100" height="30" as="geometry" />
        </mxCell>
        <mxCell id="elsuv7XGZq4n1BTtMGS8-308" value="startCharging" style="rounded=1;whiteSpace=wrap;html=1;shadow=0;comic=0;labelBackgroundColor=none;strokeWidth=1;fontFamily=Verdana;fontSize=12;align=center;arcSize=50;" parent="1" vertex="1">
          <mxGeometry x="648.1" y="2915" width="100" height="30" as="geometry" />
        </mxCell>
        <mxCell id="elsuv7XGZq4n1BTtMGS8-309" style="edgeStyle=orthogonalEdgeStyle;rounded=0;orthogonalLoop=1;jettySize=auto;html=1;entryX=0;entryY=0.5;entryDx=0;entryDy=0;" parent="1" source="elsuv7XGZq4n1BTtMGS8-304" target="elsuv7XGZq4n1BTtMGS8-308" edge="1">
          <mxGeometry relative="1" as="geometry" />
        </mxCell>
        <mxCell id="elsuv7XGZq4n1BTtMGS8-310" value="True" style="edgeLabel;html=1;align=center;verticalAlign=middle;resizable=0;points=[];labelBackgroundColor=none;" parent="elsuv7XGZq4n1BTtMGS8-309" vertex="1" connectable="0">
          <mxGeometry x="-0.7872" relative="1" as="geometry">
            <mxPoint x="-20" y="-10" as="offset" />
          </mxGeometry>
        </mxCell>
        <mxCell id="elsuv7XGZq4n1BTtMGS8-311" style="edgeStyle=orthogonalEdgeStyle;rounded=0;orthogonalLoop=1;jettySize=auto;html=1;entryX=0.5;entryY=0;entryDx=0;entryDy=0;" parent="1" source="elsuv7XGZq4n1BTtMGS8-308" target="elsuv7XGZq4n1BTtMGS8-305" edge="1">
          <mxGeometry relative="1" as="geometry">
            <Array as="points">
              <mxPoint x="698" y="2970" />
              <mxPoint x="355" y="2970" />
            </Array>
          </mxGeometry>
        </mxCell>
        <mxCell id="elsuv7XGZq4n1BTtMGS8-312" style="edgeStyle=orthogonalEdgeStyle;rounded=0;orthogonalLoop=1;jettySize=auto;html=1;entryX=0;entryY=0.5;entryDx=0;entryDy=0;" parent="1" source="elsuv7XGZq4n1BTtMGS8-313" target="elsuv7XGZq4n1BTtMGS8-307" edge="1">
          <mxGeometry relative="1" as="geometry" />
        </mxCell>
        <mxCell id="elsuv7XGZq4n1BTtMGS8-313" value="stopSupplying" style="rounded=1;whiteSpace=wrap;html=1;shadow=0;comic=0;labelBackgroundColor=none;strokeWidth=1;fontFamily=Verdana;fontSize=12;align=center;arcSize=50;" parent="1" vertex="1">
          <mxGeometry x="490" y="2468" width="100" height="30" as="geometry" />
        </mxCell>
        <mxCell id="elsuv7XGZq4n1BTtMGS8-314" value="B2-Supplying?" style="edgeLabel;html=1;align=center;verticalAlign=middle;resizable=0;points=[];labelBackgroundColor=none;" parent="1" vertex="1" connectable="0">
          <mxGeometry x="210.01958328067417" y="2769.4571385729932" as="geometry" />
        </mxCell>
        <mxCell id="elsuv7XGZq4n1BTtMGS8-315" style="edgeStyle=orthogonalEdgeStyle;rounded=0;orthogonalLoop=1;jettySize=auto;html=1;entryX=0.5;entryY=0;entryDx=0;entryDy=0;" parent="1" source="elsuv7XGZq4n1BTtMGS8-319" target="elsuv7XGZq4n1BTtMGS8-301" edge="1">
          <mxGeometry relative="1" as="geometry" />
        </mxCell>
        <mxCell id="elsuv7XGZq4n1BTtMGS8-316" value="True" style="edgeLabel;html=1;align=center;verticalAlign=middle;resizable=0;points=[];labelBackgroundColor=none;" parent="elsuv7XGZq4n1BTtMGS8-315" vertex="1" connectable="0">
          <mxGeometry x="-0.3116" relative="1" as="geometry">
            <mxPoint x="-19" as="offset" />
          </mxGeometry>
        </mxCell>
        <mxCell id="elsuv7XGZq4n1BTtMGS8-317" style="edgeStyle=orthogonalEdgeStyle;rounded=0;orthogonalLoop=1;jettySize=auto;html=1;entryX=0;entryY=0.5;entryDx=0;entryDy=0;" parent="1" source="elsuv7XGZq4n1BTtMGS8-319" target="elsuv7XGZq4n1BTtMGS8-313" edge="1">
          <mxGeometry relative="1" as="geometry" />
        </mxCell>
        <mxCell id="elsuv7XGZq4n1BTtMGS8-318" value="False" style="edgeLabel;html=1;align=center;verticalAlign=middle;resizable=0;points=[];labelBackgroundColor=none;" parent="elsuv7XGZq4n1BTtMGS8-317" vertex="1" connectable="0">
          <mxGeometry x="-0.7017" y="1" relative="1" as="geometry">
            <mxPoint x="-3" y="-12" as="offset" />
          </mxGeometry>
        </mxCell>
        <mxCell id="elsuv7XGZq4n1BTtMGS8-319" value="" style="rhombus;whiteSpace=wrap;html=1;" parent="1" vertex="1">
          <mxGeometry x="230" y="2463" width="40" height="40" as="geometry" />
        </mxCell>
        <mxCell id="elsuv7XGZq4n1BTtMGS8-320" style="edgeStyle=orthogonalEdgeStyle;rounded=0;orthogonalLoop=1;jettySize=auto;html=1;entryX=0.5;entryY=0;entryDx=0;entryDy=0;exitX=0.5;exitY=1;exitDx=0;exitDy=0;" parent="1" source="elsuv7XGZq4n1BTtMGS8-306" target="elsuv7XGZq4n1BTtMGS8-319" edge="1">
          <mxGeometry relative="1" as="geometry" />
        </mxCell>
        <mxCell id="elsuv7XGZq4n1BTtMGS8-321" value="&lt;span style=&quot;&quot;&gt;B1.SoC &amp;gt; 0?&lt;/span&gt;" style="edgeLabel;html=1;align=center;verticalAlign=middle;resizable=0;points=[];labelBackgroundColor=none;" parent="elsuv7XGZq4n1BTtMGS8-320" vertex="1" connectable="0">
          <mxGeometry x="0.0546" y="1" relative="1" as="geometry">
            <mxPoint x="-178" y="15" as="offset" />
          </mxGeometry>
        </mxCell>
        <mxCell id="elsuv7XGZq4n1BTtMGS8-322" style="edgeStyle=orthogonalEdgeStyle;rounded=0;orthogonalLoop=1;jettySize=auto;html=1;entryX=0;entryY=0.5;entryDx=0;entryDy=0;" parent="1" source="elsuv7XGZq4n1BTtMGS8-326" target="elsuv7XGZq4n1BTtMGS8-330" edge="1">
          <mxGeometry relative="1" as="geometry" />
        </mxCell>
        <mxCell id="elsuv7XGZq4n1BTtMGS8-323" value="True" style="edgeLabel;html=1;align=center;verticalAlign=middle;resizable=0;points=[];labelBackgroundColor=none;" parent="elsuv7XGZq4n1BTtMGS8-322" vertex="1" connectable="0">
          <mxGeometry x="-0.8476" relative="1" as="geometry">
            <mxPoint x="-9" y="-15" as="offset" />
          </mxGeometry>
        </mxCell>
        <mxCell id="elsuv7XGZq4n1BTtMGS8-324" style="edgeStyle=orthogonalEdgeStyle;rounded=0;orthogonalLoop=1;jettySize=auto;html=1;entryX=0.5;entryY=0;entryDx=0;entryDy=0;exitX=0;exitY=0.5;exitDx=0;exitDy=0;" parent="1" source="elsuv7XGZq4n1BTtMGS8-326" target="elsuv7XGZq4n1BTtMGS8-331" edge="1">
          <mxGeometry relative="1" as="geometry" />
        </mxCell>
        <mxCell id="elsuv7XGZq4n1BTtMGS8-325" value="Flase" style="edgeLabel;html=1;align=center;verticalAlign=middle;resizable=0;points=[];labelBackgroundColor=none;" parent="elsuv7XGZq4n1BTtMGS8-324" vertex="1" connectable="0">
          <mxGeometry x="-0.745" relative="1" as="geometry">
            <mxPoint y="-10" as="offset" />
          </mxGeometry>
        </mxCell>
        <mxCell id="elsuv7XGZq4n1BTtMGS8-326" value="" style="rhombus;whiteSpace=wrap;html=1;" parent="1" vertex="1">
          <mxGeometry x="230" y="2610" width="40" height="40" as="geometry" />
        </mxCell>
        <mxCell id="elsuv7XGZq4n1BTtMGS8-327" style="edgeStyle=orthogonalEdgeStyle;rounded=0;orthogonalLoop=1;jettySize=auto;html=1;entryX=0.5;entryY=0;entryDx=0;entryDy=0;exitX=0.5;exitY=1;exitDx=0;exitDy=0;" parent="1" source="elsuv7XGZq4n1BTtMGS8-307" target="elsuv7XGZq4n1BTtMGS8-326" edge="1">
          <mxGeometry relative="1" as="geometry">
            <Array as="points">
              <mxPoint x="698" y="2580" />
              <mxPoint x="250" y="2580" />
            </Array>
          </mxGeometry>
        </mxCell>
        <mxCell id="elsuv7XGZq4n1BTtMGS8-328" value="B2.SoC &amp;gt; 0?" style="edgeLabel;html=1;align=center;verticalAlign=middle;resizable=0;points=[];labelBackgroundColor=none;" parent="1" vertex="1" connectable="0">
          <mxGeometry x="169.99857142857147" y="2589.9985714285713" as="geometry">
            <mxPoint x="6" y="2" as="offset" />
          </mxGeometry>
        </mxCell>
        <mxCell id="elsuv7XGZq4n1BTtMGS8-329" style="edgeStyle=orthogonalEdgeStyle;rounded=0;orthogonalLoop=1;jettySize=auto;html=1;entryX=0.5;entryY=0;entryDx=0;entryDy=0;exitX=0.5;exitY=1;exitDx=0;exitDy=0;" parent="1" source="elsuv7XGZq4n1BTtMGS8-330" target="elsuv7XGZq4n1BTtMGS8-332" edge="1">
          <mxGeometry relative="1" as="geometry" />
        </mxCell>
        <mxCell id="elsuv7XGZq4n1BTtMGS8-330" value="startSupplying" style="rounded=1;whiteSpace=wrap;html=1;shadow=0;comic=0;labelBackgroundColor=none;strokeWidth=1;fontFamily=Verdana;fontSize=12;align=center;arcSize=50;" parent="1" vertex="1">
          <mxGeometry x="648.1" y="2615" width="100" height="30" as="geometry" />
        </mxCell>
        <mxCell id="elsuv7XGZq4n1BTtMGS8-331" value="set state to Idle" style="rounded=1;whiteSpace=wrap;html=1;shadow=0;comic=0;labelBackgroundColor=none;strokeWidth=1;fontFamily=Verdana;fontSize=12;align=center;arcSize=50;" parent="1" vertex="1">
          <mxGeometry x="80" y="2700" width="170" height="30" as="geometry" />
        </mxCell>
        <mxCell id="elsuv7XGZq4n1BTtMGS8-332" value="set state to B2-Supplying" style="rounded=1;whiteSpace=wrap;html=1;shadow=0;comic=0;labelBackgroundColor=none;strokeWidth=1;fontFamily=Verdana;fontSize=12;align=center;arcSize=50;" parent="1" vertex="1">
          <mxGeometry x="270" y="2700" width="170" height="30" as="geometry" />
        </mxCell>
        <mxCell id="elsuv7XGZq4n1BTtMGS8-333" style="edgeStyle=orthogonalEdgeStyle;rounded=0;orthogonalLoop=1;jettySize=auto;html=1;entryX=0.5;entryY=0;entryDx=0;entryDy=0;" parent="1" source="elsuv7XGZq4n1BTtMGS8-335" target="elsuv7XGZq4n1BTtMGS8-304" edge="1">
          <mxGeometry relative="1" as="geometry">
            <Array as="points">
              <mxPoint x="695" y="2870" />
              <mxPoint x="250" y="2870" />
            </Array>
          </mxGeometry>
        </mxCell>
        <mxCell id="elsuv7XGZq4n1BTtMGS8-334" value="B2.SoC &amp;gt; 0?" style="edgeLabel;html=1;align=center;verticalAlign=middle;resizable=0;points=[];labelBackgroundColor=none;" parent="elsuv7XGZq4n1BTtMGS8-333" vertex="1" connectable="0">
          <mxGeometry x="0.9042" y="1" relative="1" as="geometry">
            <mxPoint x="-71" as="offset" />
          </mxGeometry>
        </mxCell>
        <mxCell id="elsuv7XGZq4n1BTtMGS8-335" value="getSoC" style="rounded=1;whiteSpace=wrap;html=1;shadow=0;comic=0;labelBackgroundColor=none;strokeWidth=1;fontFamily=Verdana;fontSize=12;align=center;arcSize=50;" parent="1" vertex="1">
          <mxGeometry x="645" y="2795" width="100" height="30" as="geometry" />
        </mxCell>
        <mxCell id="elsuv7XGZq4n1BTtMGS8-336" style="edgeStyle=orthogonalEdgeStyle;rounded=0;orthogonalLoop=1;jettySize=auto;html=1;entryX=0;entryY=0.5;entryDx=0;entryDy=0;" parent="1" source="elsuv7XGZq4n1BTtMGS8-303" target="elsuv7XGZq4n1BTtMGS8-335" edge="1">
          <mxGeometry relative="1" as="geometry" />
        </mxCell>
        <mxCell id="elsuv7XGZq4n1BTtMGS8-337" value="True" style="edgeLabel;html=1;align=center;verticalAlign=middle;resizable=0;points=[];labelBackgroundColor=none;" parent="elsuv7XGZq4n1BTtMGS8-336" vertex="1" connectable="0">
          <mxGeometry x="-0.8555" y="-1" relative="1" as="geometry">
            <mxPoint x="-7" y="-11" as="offset" />
          </mxGeometry>
        </mxCell>
        <mxCell id="elsuv7XGZq4n1BTtMGS8-339" style="edgeStyle=orthogonalEdgeStyle;rounded=0;orthogonalLoop=1;jettySize=auto;html=1;entryX=0.5;entryY=0;entryDx=0;entryDy=0;exitX=0;exitY=0.5;exitDx=0;exitDy=0;" parent="1" source="elsuv7XGZq4n1BTtMGS8-304" target="elsuv7XGZq4n1BTtMGS8-338" edge="1">
          <mxGeometry relative="1" as="geometry" />
        </mxCell>
        <mxCell id="elsuv7XGZq4n1BTtMGS8-341" style="edgeStyle=orthogonalEdgeStyle;rounded=0;orthogonalLoop=1;jettySize=auto;html=1;entryX=0;entryY=0.5;entryDx=0;entryDy=0;" parent="1" source="elsuv7XGZq4n1BTtMGS8-296" target="elsuv7XGZq4n1BTtMGS8-306" edge="1">
          <mxGeometry relative="1" as="geometry" />
        </mxCell>
        <mxCell id="elsuv7XGZq4n1BTtMGS8-345" value="True" style="edgeLabel;html=1;align=center;verticalAlign=middle;resizable=0;points=[];labelBackgroundColor=none;" parent="elsuv7XGZq4n1BTtMGS8-341" vertex="1" connectable="0">
          <mxGeometry x="-0.7485" y="-2" relative="1" as="geometry">
            <mxPoint x="-7" y="-12" as="offset" />
          </mxGeometry>
        </mxCell>
        <mxCell id="elsuv7XGZq4n1BTtMGS8-342" value="stopCharging" style="rounded=1;whiteSpace=wrap;html=1;shadow=0;comic=0;labelBackgroundColor=none;strokeWidth=1;fontFamily=Verdana;fontSize=12;align=center;arcSize=50;" parent="1" vertex="1">
          <mxGeometry x="650" y="2220" width="100" height="30" as="geometry" />
        </mxCell>
        <mxCell id="elsuv7XGZq4n1BTtMGS8-343" style="edgeStyle=orthogonalEdgeStyle;rounded=0;orthogonalLoop=1;jettySize=auto;html=1;entryX=0.5;entryY=0;entryDx=0;entryDy=0;" parent="1" source="elsuv7XGZq4n1BTtMGS8-283" target="elsuv7XGZq4n1BTtMGS8-342" edge="1">
          <mxGeometry relative="1" as="geometry">
            <Array as="points">
              <mxPoint x="250" y="2200" />
              <mxPoint x="700" y="2200" />
            </Array>
          </mxGeometry>
        </mxCell>
        <mxCell id="elsuv7XGZq4n1BTtMGS8-344" value="False" style="edgeLabel;html=1;align=center;verticalAlign=middle;resizable=0;points=[];labelBackgroundColor=none;" parent="elsuv7XGZq4n1BTtMGS8-343" vertex="1" connectable="0">
          <mxGeometry x="-0.9409" relative="1" as="geometry">
            <mxPoint x="16" as="offset" />
          </mxGeometry>
        </mxCell>
        <mxCell id="elsuv7XGZq4n1BTtMGS8-294" style="edgeStyle=orthogonalEdgeStyle;rounded=0;orthogonalLoop=1;jettySize=auto;html=1;entryX=1;entryY=0.5;entryDx=0;entryDy=0;exitX=0;exitY=0.5;exitDx=0;exitDy=0;" parent="1" source="elsuv7XGZq4n1BTtMGS8-342" target="elsuv7XGZq4n1BTtMGS8-287" edge="1">
          <mxGeometry relative="1" as="geometry" />
        </mxCell>
        <mxCell id="elsuv7XGZq4n1BTtMGS8-346" style="edgeStyle=orthogonalEdgeStyle;rounded=0;orthogonalLoop=1;jettySize=auto;html=1;entryX=0.5;entryY=0;entryDx=0;entryDy=0;" parent="1" source="elsuv7XGZq4n1BTtMGS8-296" target="elsuv7XGZq4n1BTtMGS8-303" edge="1">
          <mxGeometry relative="1" as="geometry">
            <Array as="points">
              <mxPoint x="70" y="2390" />
              <mxPoint x="70" y="2760" />
              <mxPoint x="250" y="2760" />
            </Array>
          </mxGeometry>
        </mxCell>
        <mxCell id="elsuv7XGZq4n1BTtMGS8-351" style="edgeStyle=orthogonalEdgeStyle;rounded=0;orthogonalLoop=1;jettySize=auto;html=1;entryX=1;entryY=0.5;entryDx=0;entryDy=0;" parent="1" source="elsuv7XGZq4n1BTtMGS8-348" target="elsuv7XGZq4n1BTtMGS8-338" edge="1">
          <mxGeometry relative="1" as="geometry" />
        </mxCell>
        <mxCell id="elsuv7XGZq4n1BTtMGS8-348" value="stopCharging" style="rounded=1;whiteSpace=wrap;html=1;shadow=0;comic=0;labelBackgroundColor=none;strokeWidth=1;fontFamily=Verdana;fontSize=12;align=center;arcSize=50;" parent="1" vertex="1">
          <mxGeometry x="648.1" y="3070" width="100" height="30" as="geometry" />
        </mxCell>
        <mxCell id="hf4EOH9nCz6FYehoyxFz-1" value="" style="rounded=1;whiteSpace=wrap;html=1;strokeColor=#475E75;fillColor=#F5F6F7;arcSize=24;absoluteArcSize=1;imageWidth=64;imageHeight=64;strokeWidth=1.5;" vertex="1" parent="1">
          <mxGeometry x="40" y="3270" width="740" height="910" as="geometry" />
        </mxCell>
        <mxCell id="hf4EOH9nCz6FYehoyxFz-2" value="&lt;b&gt;Interaction Model&lt;/b&gt;" style="rounded=1;whiteSpace=wrap;html=1;strokeWidth=1.5;arcSize=16;perimeterSpacing=0;absoluteArcSize=1;" vertex="1" parent="1">
          <mxGeometry x="50" y="3280" width="130" height="30" as="geometry" />
        </mxCell>
        <mxCell id="hf4EOH9nCz6FYehoyxFz-3" value="" style="group;glass=0;shadow=0;" vertex="1" connectable="0" parent="1">
          <mxGeometry x="630" y="3290" width="130" height="90" as="geometry" />
        </mxCell>
        <mxCell id="hf4EOH9nCz6FYehoyxFz-4" value="" style="shape=parallelogram;html=1;strokeWidth=1;perimeter=parallelogramPerimeter;whiteSpace=wrap;rounded=1;arcSize=12;size=0.23;shadow=0;" vertex="1" parent="hf4EOH9nCz6FYehoyxFz-3">
          <mxGeometry x="92.85714285714286" y="24" width="37.142857142857146" height="12" as="geometry" />
        </mxCell>
        <mxCell id="hf4EOH9nCz6FYehoyxFz-5" value="" style="shape=parallelogram;html=1;strokeWidth=1;perimeter=parallelogramPerimeter;whiteSpace=wrap;rounded=1;arcSize=12;size=0.23;shadow=0;" vertex="1" parent="hf4EOH9nCz6FYehoyxFz-3">
          <mxGeometry x="49.523809523809526" width="37.142857142857146" height="12" as="geometry" />
        </mxCell>
        <mxCell id="hf4EOH9nCz6FYehoyxFz-6" value="" style="shape=parallelogram;html=1;strokeWidth=1;perimeter=parallelogramPerimeter;whiteSpace=wrap;rounded=1;arcSize=12;size=0.23;shadow=0;" vertex="1" parent="hf4EOH9nCz6FYehoyxFz-3">
          <mxGeometry y="24" width="37.142857142857146" height="12" as="geometry" />
        </mxCell>
        <mxCell id="hf4EOH9nCz6FYehoyxFz-7" value="" style="edgeStyle=isometricEdgeStyle;endArrow=none;html=1;elbow=vertical;rounded=0;entryX=1;entryY=0.5;entryDx=0;entryDy=0;exitX=1;exitY=0.5;exitDx=0;exitDy=0;" edge="1" parent="hf4EOH9nCz6FYehoyxFz-3" source="hf4EOH9nCz6FYehoyxFz-5" target="hf4EOH9nCz6FYehoyxFz-5">
          <mxGeometry width="50" height="100" relative="1" as="geometry">
            <mxPoint x="89.76190476190476" y="72" as="sourcePoint" />
            <mxPoint x="120.71428571428572" y="12" as="targetPoint" />
            <Array as="points" />
          </mxGeometry>
        </mxCell>
        <mxCell id="hf4EOH9nCz6FYehoyxFz-8" value="" style="endArrow=open;html=1;rounded=0;endSize=2;entryX=1;entryY=0.5;entryDx=0;entryDy=0;exitX=0.598;exitY=-0.024;exitDx=0;exitDy=0;exitPerimeter=0;startArrow=open;startFill=0;endFill=0;startSize=2;" edge="1" parent="hf4EOH9nCz6FYehoyxFz-3" source="hf4EOH9nCz6FYehoyxFz-4" target="hf4EOH9nCz6FYehoyxFz-5">
          <mxGeometry width="50" height="50" relative="1" as="geometry">
            <mxPoint x="117.61904761904762" y="30" as="sourcePoint" />
            <mxPoint x="94.77619047619042" y="12" as="targetPoint" />
            <Array as="points">
              <mxPoint x="123.80952380952381" y="6" />
            </Array>
          </mxGeometry>
        </mxCell>
        <mxCell id="hf4EOH9nCz6FYehoyxFz-9" value="" style="endArrow=open;html=1;rounded=0;endSize=2;entryX=0;entryY=0.5;entryDx=0;entryDy=0;exitX=0.5;exitY=0;exitDx=0;exitDy=0;strokeColor=default;align=center;verticalAlign=middle;fontFamily=Helvetica;fontSize=11;fontColor=default;labelBackgroundColor=default;startArrow=open;startFill=0;startSize=2;endFill=0;" edge="1" parent="hf4EOH9nCz6FYehoyxFz-3" source="hf4EOH9nCz6FYehoyxFz-6" target="hf4EOH9nCz6FYehoyxFz-5">
          <mxGeometry width="50" height="50" relative="1" as="geometry">
            <mxPoint x="59.42857142857143" y="24" as="sourcePoint" />
            <mxPoint x="51.38095238095238" y="12" as="targetPoint" />
            <Array as="points">
              <mxPoint x="30.952380952380953" y="6" />
            </Array>
          </mxGeometry>
        </mxCell>
        <mxCell id="hf4EOH9nCz6FYehoyxFz-10" value="" style="shape=cube;whiteSpace=wrap;html=1;boundedLbl=1;backgroundOutline=1;darkOpacity=0.05;darkOpacity2=0.1;size=10;shadow=1;" vertex="1" parent="hf4EOH9nCz6FYehoyxFz-3">
          <mxGeometry x="52.61904761904762" y="25.2" width="24.761904761904763" height="36" as="geometry" />
        </mxCell>
        <mxCell id="hf4EOH9nCz6FYehoyxFz-11" value="" style="endArrow=block;html=1;rounded=0;exitX=0.475;exitY=0.969;exitDx=0;exitDy=0;exitPerimeter=0;entryX=0.332;entryY=-0.012;entryDx=0;entryDy=0;entryPerimeter=0;endSize=2;strokeColor=default;align=center;verticalAlign=middle;fontFamily=Helvetica;fontSize=11;fontColor=default;labelBackgroundColor=default;endFill=1;" edge="1" parent="hf4EOH9nCz6FYehoyxFz-3" source="hf4EOH9nCz6FYehoyxFz-5" target="hf4EOH9nCz6FYehoyxFz-10">
          <mxGeometry width="50" height="50" relative="1" as="geometry">
            <mxPoint x="74.28571428571429" y="78" as="sourcePoint" />
            <mxPoint x="105.23809523809524" y="48" as="targetPoint" />
          </mxGeometry>
        </mxCell>
        <mxCell id="hf4EOH9nCz6FYehoyxFz-12" value="" style="endArrow=block;html=1;rounded=0;exitX=0;exitY=0.25;exitDx=0;exitDy=0;entryX=0.753;entryY=0.083;entryDx=0;entryDy=0;entryPerimeter=0;endSize=2;strokeColor=default;align=center;verticalAlign=middle;fontFamily=Helvetica;fontSize=11;fontColor=default;labelBackgroundColor=default;endFill=1;" edge="1" parent="hf4EOH9nCz6FYehoyxFz-3" source="hf4EOH9nCz6FYehoyxFz-4" target="hf4EOH9nCz6FYehoyxFz-10">
          <mxGeometry width="50" height="50" relative="1" as="geometry">
            <mxPoint x="71.19047619047619" y="18" as="sourcePoint" />
            <mxPoint x="71.19047619047619" y="30" as="targetPoint" />
          </mxGeometry>
        </mxCell>
        <mxCell id="hf4EOH9nCz6FYehoyxFz-13" value="" style="endArrow=block;html=1;rounded=0;exitX=0.93;exitY=0.361;exitDx=0;exitDy=0;entryX=-0.052;entryY=0.085;entryDx=0;entryDy=0;entryPerimeter=0;endSize=2;exitPerimeter=0;endFill=1;" edge="1" parent="hf4EOH9nCz6FYehoyxFz-3" source="hf4EOH9nCz6FYehoyxFz-6" target="hf4EOH9nCz6FYehoyxFz-10">
          <mxGeometry width="50" height="50" relative="1" as="geometry">
            <mxPoint x="104.61904761904762" y="34.199999999999996" as="sourcePoint" />
            <mxPoint x="83.57142857142857" y="34.199999999999996" as="targetPoint" />
          </mxGeometry>
        </mxCell>
        <mxCell id="hf4EOH9nCz6FYehoyxFz-14" value="" style="shape=parallelogram;html=1;strokeWidth=1;perimeter=parallelogramPerimeter;whiteSpace=wrap;rounded=1;arcSize=12;size=0.23;shadow=1;fillColor=#FFFFFF;" vertex="1" parent="hf4EOH9nCz6FYehoyxFz-3">
          <mxGeometry x="86.66666666666667" y="54" width="37.142857142857146" height="12" as="geometry" />
        </mxCell>
        <mxCell id="hf4EOH9nCz6FYehoyxFz-15" value="" style="shape=parallelogram;html=1;strokeWidth=1;perimeter=parallelogramPerimeter;whiteSpace=wrap;rounded=1;arcSize=12;size=0.23;shadow=1;" vertex="1" parent="hf4EOH9nCz6FYehoyxFz-3">
          <mxGeometry x="24.761904761904763" y="78" width="37.142857142857146" height="12" as="geometry" />
        </mxCell>
        <mxCell id="hf4EOH9nCz6FYehoyxFz-16" value="" style="shape=parallelogram;html=1;strokeWidth=1;perimeter=parallelogramPerimeter;whiteSpace=wrap;rounded=1;arcSize=12;size=0.23;shadow=1;fillColor=#000000;" vertex="1" parent="hf4EOH9nCz6FYehoyxFz-3">
          <mxGeometry y="54" width="37.142857142857146" height="12" as="geometry" />
        </mxCell>
        <mxCell id="hf4EOH9nCz6FYehoyxFz-18" value="" style="endArrow=open;html=1;rounded=0;endSize=2;entryX=1;entryY=0.5;entryDx=0;entryDy=0;exitX=0.421;exitY=1.024;exitDx=0;exitDy=0;exitPerimeter=0;strokeColor=default;align=center;verticalAlign=middle;fontFamily=Helvetica;fontSize=11;fontColor=default;labelBackgroundColor=default;startArrow=open;startFill=0;startSize=2;endFill=0;" edge="1" parent="hf4EOH9nCz6FYehoyxFz-3" source="hf4EOH9nCz6FYehoyxFz-14" target="hf4EOH9nCz6FYehoyxFz-15">
          <mxGeometry width="50" height="50" relative="1" as="geometry">
            <mxPoint x="111.42857142857143" y="60" as="sourcePoint" />
            <mxPoint x="88.58571428571423" y="42" as="targetPoint" />
            <Array as="points">
              <mxPoint x="92.85714285714286" y="84" />
            </Array>
          </mxGeometry>
        </mxCell>
        <mxCell id="hf4EOH9nCz6FYehoyxFz-19" value="" style="endArrow=open;html=1;rounded=0;endSize=2;entryX=0;entryY=0.5;entryDx=0;entryDy=0;exitX=0.405;exitY=1.002;exitDx=0;exitDy=0;exitPerimeter=0;strokeColor=default;align=center;verticalAlign=middle;fontFamily=Helvetica;fontSize=11;fontColor=default;labelBackgroundColor=default;startArrow=open;startFill=0;startSize=2;endFill=0;" edge="1" parent="hf4EOH9nCz6FYehoyxFz-3" source="hf4EOH9nCz6FYehoyxFz-16" target="hf4EOH9nCz6FYehoyxFz-15">
          <mxGeometry width="50" height="50" relative="1" as="geometry">
            <mxPoint x="53.23809523809524" y="54" as="sourcePoint" />
            <mxPoint x="45.19047619047619" y="42" as="targetPoint" />
            <Array as="points">
              <mxPoint y="84" />
            </Array>
          </mxGeometry>
        </mxCell>
        <mxCell id="hf4EOH9nCz6FYehoyxFz-20" value="" style="endArrow=block;html=1;rounded=0;exitX=0.605;exitY=-0.013;exitDx=0;exitDy=0;exitPerimeter=0;entryX=0.326;entryY=1.008;entryDx=0;entryDy=0;entryPerimeter=0;endSize=2;strokeColor=default;align=center;verticalAlign=middle;fontFamily=Helvetica;fontSize=11;fontColor=default;labelBackgroundColor=default;endFill=1;" edge="1" parent="hf4EOH9nCz6FYehoyxFz-3" source="hf4EOH9nCz6FYehoyxFz-15" target="hf4EOH9nCz6FYehoyxFz-10">
          <mxGeometry width="50" height="50" relative="1" as="geometry">
            <mxPoint x="68.0952380952381" y="108" as="sourcePoint" />
            <mxPoint x="58.80952380952381" y="55.199999999999996" as="targetPoint" />
          </mxGeometry>
        </mxCell>
        <mxCell id="hf4EOH9nCz6FYehoyxFz-21" value="" style="endArrow=block;html=1;rounded=0;exitX=0;exitY=0.25;exitDx=0;exitDy=0;endSize=2;entryX=1.006;entryY=0.917;entryDx=0;entryDy=0;entryPerimeter=0;strokeColor=default;align=center;verticalAlign=middle;fontFamily=Helvetica;fontSize=11;fontColor=default;labelBackgroundColor=default;endFill=1;" edge="1" parent="hf4EOH9nCz6FYehoyxFz-3" source="hf4EOH9nCz6FYehoyxFz-14" target="hf4EOH9nCz6FYehoyxFz-10">
          <mxGeometry width="50" height="50" relative="1" as="geometry">
            <mxPoint x="65" y="48" as="sourcePoint" />
            <mxPoint x="80.47619047619048" y="58.199999999999996" as="targetPoint" />
          </mxGeometry>
        </mxCell>
        <mxCell id="hf4EOH9nCz6FYehoyxFz-22" value="" style="endArrow=block;html=1;rounded=0;exitX=0.93;exitY=0.361;exitDx=0;exitDy=0;entryX=0.047;entryY=0.917;entryDx=0;entryDy=0;entryPerimeter=0;endSize=2;exitPerimeter=0;strokeColor=default;align=center;verticalAlign=middle;fontFamily=Helvetica;fontSize=11;fontColor=default;labelBackgroundColor=default;endFill=1;" edge="1" parent="hf4EOH9nCz6FYehoyxFz-3" source="hf4EOH9nCz6FYehoyxFz-16" target="hf4EOH9nCz6FYehoyxFz-10">
          <mxGeometry width="50" height="50" relative="1" as="geometry">
            <mxPoint x="98.42857142857143" y="64.2" as="sourcePoint" />
            <mxPoint x="48.285714285714285" y="58.199999999999996" as="targetPoint" />
          </mxGeometry>
        </mxCell>
        <mxCell id="hf4EOH9nCz6FYehoyxFz-23" value="" style="endArrow=open;startArrow=open;html=1;rounded=0;entryX=0.5;entryY=1;entryDx=0;entryDy=0;exitX=0.5;exitY=0;exitDx=0;exitDy=0;endSize=2;startSize=2;startFill=0;endFill=0;" edge="1" parent="hf4EOH9nCz6FYehoyxFz-3" source="hf4EOH9nCz6FYehoyxFz-16" target="hf4EOH9nCz6FYehoyxFz-6">
          <mxGeometry width="50" height="50" relative="1" as="geometry">
            <mxPoint x="12.380952380952381" y="60" as="sourcePoint" />
            <mxPoint x="43.333333333333336" y="30" as="targetPoint" />
          </mxGeometry>
        </mxCell>
        <mxCell id="hf4EOH9nCz6FYehoyxFz-24" value="" style="endArrow=open;startArrow=open;html=1;rounded=0;entryX=0.409;entryY=0.996;entryDx=0;entryDy=0;exitX=0.572;exitY=0.009;exitDx=0;exitDy=0;endSize=2;startSize=2;startFill=0;endFill=0;entryPerimeter=0;exitPerimeter=0;" edge="1" parent="hf4EOH9nCz6FYehoyxFz-3" source="hf4EOH9nCz6FYehoyxFz-14" target="hf4EOH9nCz6FYehoyxFz-4">
          <mxGeometry width="50" height="50" relative="1" as="geometry">
            <mxPoint x="111.31095238095239" y="54" as="sourcePoint" />
            <mxPoint x="111.31095238095239" y="36" as="targetPoint" />
          </mxGeometry>
        </mxCell>
        <mxCell id="hf4EOH9nCz6FYehoyxFz-25" value="&lt;font size=&quot;1&quot; color=&quot;#475f75&quot;&gt;&lt;b style=&quot;&quot;&gt;UML Sequence Diagram&lt;/b&gt;&lt;/font&gt;" style="rounded=1;whiteSpace=wrap;html=1;arcSize=50;strokeColor=#475f75;fillColor=default;strokeWidth=1.5;" vertex="1" parent="1">
          <mxGeometry x="193" y="3287" width="147" height="16" as="geometry" />
        </mxCell>
        <mxCell id="hf4EOH9nCz6FYehoyxFz-84" value="" style="group" vertex="1" connectable="0" parent="1">
          <mxGeometry x="50" y="3390" width="720" height="810" as="geometry" />
        </mxCell>
        <mxCell id="hf4EOH9nCz6FYehoyxFz-56" value=":BatteryPack" style="shape=umlLifeline;perimeter=lifelinePerimeter;whiteSpace=wrap;html=1;container=1;collapsible=0;recursiveResize=0;outlineConnect=0;rounded=1;shadow=0;comic=0;labelBackgroundColor=none;strokeWidth=1;fontFamily=Verdana;fontSize=12;align=center;" vertex="1" parent="hf4EOH9nCz6FYehoyxFz-84">
          <mxGeometry x="350" y="37.674418604651166" width="100" height="612.2093023255813" as="geometry" />
        </mxCell>
        <mxCell id="hf4EOH9nCz6FYehoyxFz-57" value="" style="html=1;points=[];perimeter=orthogonalPerimeter;rounded=0;shadow=0;comic=0;labelBackgroundColor=none;strokeWidth=1;fontFamily=Verdana;fontSize=12;align=center;" vertex="1" parent="hf4EOH9nCz6FYehoyxFz-56">
          <mxGeometry x="45" y="94.1860465116279" width="10" height="122.44186046511626" as="geometry" />
        </mxCell>
        <mxCell id="hf4EOH9nCz6FYehoyxFz-58" value="B1:Battery" style="shape=umlLifeline;perimeter=lifelinePerimeter;whiteSpace=wrap;html=1;container=1;collapsible=0;recursiveResize=0;outlineConnect=0;rounded=1;shadow=0;comic=0;labelBackgroundColor=none;strokeWidth=1;fontFamily=Verdana;fontSize=12;align=center;" vertex="1" parent="hf4EOH9nCz6FYehoyxFz-84">
          <mxGeometry x="120" y="37.674418604651166" width="100" height="612.2093023255813" as="geometry" />
        </mxCell>
        <mxCell id="hf4EOH9nCz6FYehoyxFz-59" value="" style="html=1;points=[];perimeter=orthogonalPerimeter;rounded=0;shadow=0;comic=0;labelBackgroundColor=none;strokeWidth=1;fontFamily=Verdana;fontSize=12;align=center;" vertex="1" parent="hf4EOH9nCz6FYehoyxFz-58">
          <mxGeometry x="45" y="94.1860465116279" width="10" height="47.09302325581395" as="geometry" />
        </mxCell>
        <mxCell id="hf4EOH9nCz6FYehoyxFz-60" value="B2:Battery" style="shape=umlLifeline;perimeter=lifelinePerimeter;whiteSpace=wrap;html=1;container=1;collapsible=0;recursiveResize=0;outlineConnect=0;rounded=1;shadow=0;comic=0;labelBackgroundColor=none;strokeWidth=1;fontFamily=Verdana;fontSize=12;align=center;" vertex="1" parent="hf4EOH9nCz6FYehoyxFz-84">
          <mxGeometry x="585" y="37.674418604651166" width="100" height="612.2093023255813" as="geometry" />
        </mxCell>
        <mxCell id="hf4EOH9nCz6FYehoyxFz-61" value="" style="html=1;points=[];perimeter=orthogonalPerimeter;rounded=0;shadow=0;comic=0;labelBackgroundColor=none;strokeWidth=1;fontFamily=Verdana;fontSize=12;align=center;" vertex="1" parent="hf4EOH9nCz6FYehoyxFz-60">
          <mxGeometry x="45" y="160.11627906976742" width="10" height="56.51162790697674" as="geometry" />
        </mxCell>
        <mxCell id="hf4EOH9nCz6FYehoyxFz-83" value="checkSoC" style="swimlane;whiteSpace=wrap;html=1;" vertex="1" parent="hf4EOH9nCz6FYehoyxFz-84">
          <mxGeometry width="720" height="760" as="geometry" />
        </mxCell>
        <mxCell id="hf4EOH9nCz6FYehoyxFz-97" value="loop" style="shape=umlFrame;whiteSpace=wrap;html=1;pointerEvents=0;" vertex="1" parent="hf4EOH9nCz6FYehoyxFz-83">
          <mxGeometry x="15" y="96.77" width="685" height="643.23" as="geometry" />
        </mxCell>
        <mxCell id="hf4EOH9nCz6FYehoyxFz-104" value="" style="html=1;points=[[0,0,0,0,5],[0,1,0,0,-5],[1,0,0,0,5],[1,1,0,0,-5]];perimeter=orthogonalPerimeter;outlineConnect=0;targetShapes=umlLifeline;portConstraint=eastwest;newEdgeStyle={&quot;curved&quot;:0,&quot;rounded&quot;:0};" vertex="1" parent="hf4EOH9nCz6FYehoyxFz-83">
          <mxGeometry x="395" y="310.8139534883721" width="10" height="56.51162790697674" as="geometry" />
        </mxCell>
        <mxCell id="hf4EOH9nCz6FYehoyxFz-105" value="" style="html=1;points=[[0,0,0,0,5],[0,1,0,0,-5],[1,0,0,0,5],[1,1,0,0,-5]];perimeter=orthogonalPerimeter;outlineConnect=0;targetShapes=umlLifeline;portConstraint=eastwest;newEdgeStyle={&quot;curved&quot;:0,&quot;rounded&quot;:0};" vertex="1" parent="hf4EOH9nCz6FYehoyxFz-83">
          <mxGeometry x="630" y="310.8139534883721" width="10" height="56.51162790697674" as="geometry" />
        </mxCell>
        <mxCell id="hf4EOH9nCz6FYehoyxFz-106" value="" style="endArrow=block;endFill=1;endSize=6;html=1;rounded=0;exitX=1;exitY=0;exitDx=0;exitDy=5;exitPerimeter=0;entryX=0;entryY=0;entryDx=0;entryDy=5;entryPerimeter=0;strokeColor=default;align=center;verticalAlign=middle;fontFamily=Helvetica;fontSize=11;fontColor=default;labelBackgroundColor=default;" edge="1" parent="hf4EOH9nCz6FYehoyxFz-83" source="hf4EOH9nCz6FYehoyxFz-104" target="hf4EOH9nCz6FYehoyxFz-105">
          <mxGeometry width="160" relative="1" as="geometry">
            <mxPoint x="410" y="339.06976744186045" as="sourcePoint" />
            <mxPoint x="570" y="339.06976744186045" as="targetPoint" />
          </mxGeometry>
        </mxCell>
        <mxCell id="hf4EOH9nCz6FYehoyxFz-108" value="getSoC()" style="edgeLabel;html=1;align=center;verticalAlign=middle;resizable=0;points=[];labelBackgroundColor=none;" vertex="1" connectable="0" parent="hf4EOH9nCz6FYehoyxFz-106">
          <mxGeometry x="0.0123" y="1" relative="1" as="geometry">
            <mxPoint y="-8" as="offset" />
          </mxGeometry>
        </mxCell>
        <mxCell id="hf4EOH9nCz6FYehoyxFz-107" value="" style="endArrow=block;endFill=1;endSize=6;html=1;rounded=0;exitX=1;exitY=1;exitDx=0;exitDy=-5;exitPerimeter=0;entryX=0;entryY=1;entryDx=0;entryDy=-5;entryPerimeter=0;strokeColor=default;align=center;verticalAlign=middle;fontFamily=Helvetica;fontSize=11;fontColor=default;labelBackgroundColor=default;" edge="1" parent="hf4EOH9nCz6FYehoyxFz-83" source="hf4EOH9nCz6FYehoyxFz-104" target="hf4EOH9nCz6FYehoyxFz-105">
          <mxGeometry width="160" relative="1" as="geometry">
            <mxPoint x="410" y="357.90697674418607" as="sourcePoint" />
            <mxPoint x="570" y="357.90697674418607" as="targetPoint" />
          </mxGeometry>
        </mxCell>
        <mxCell id="hf4EOH9nCz6FYehoyxFz-109" value="[B2,SoC = B2.MaxCharge] stopCharging()" style="edgeLabel;html=1;align=center;verticalAlign=middle;resizable=0;points=[];labelBackgroundColor=none;" vertex="1" connectable="0" parent="hf4EOH9nCz6FYehoyxFz-107">
          <mxGeometry x="-0.0074" relative="1" as="geometry">
            <mxPoint y="-11" as="offset" />
          </mxGeometry>
        </mxCell>
        <mxCell id="hf4EOH9nCz6FYehoyxFz-85" style="edgeStyle=orthogonalEdgeStyle;rounded=0;orthogonalLoop=1;jettySize=auto;html=1;entryX=0.933;entryY=0.027;entryDx=0;entryDy=0;entryPerimeter=0;exitX=-0.041;exitY=0.006;exitDx=0;exitDy=0;exitPerimeter=0;endArrow=block;endFill=1;" edge="1" parent="hf4EOH9nCz6FYehoyxFz-84" source="hf4EOH9nCz6FYehoyxFz-57" target="hf4EOH9nCz6FYehoyxFz-59">
          <mxGeometry relative="1" as="geometry">
            <Array as="points">
              <mxPoint x="285" y="132.80232558139534" />
            </Array>
          </mxGeometry>
        </mxCell>
        <mxCell id="hf4EOH9nCz6FYehoyxFz-86" value="getSoC()" style="edgeLabel;html=1;align=center;verticalAlign=middle;resizable=0;points=[];labelBackgroundColor=none;" vertex="1" connectable="0" parent="hf4EOH9nCz6FYehoyxFz-85">
          <mxGeometry x="-0.0229" relative="1" as="geometry">
            <mxPoint x="1" y="-9" as="offset" />
          </mxGeometry>
        </mxCell>
        <mxCell id="hf4EOH9nCz6FYehoyxFz-87" style="edgeStyle=orthogonalEdgeStyle;rounded=0;orthogonalLoop=1;jettySize=auto;html=1;entryX=-0.056;entryY=0.338;entryDx=0;entryDy=0;entryPerimeter=0;endArrow=none;endFill=0;startArrow=block;startFill=1;" edge="1" parent="hf4EOH9nCz6FYehoyxFz-84" target="hf4EOH9nCz6FYehoyxFz-57">
          <mxGeometry relative="1" as="geometry">
            <mxPoint x="175" y="173.30232558139534" as="sourcePoint" />
            <Array as="points" />
          </mxGeometry>
        </mxCell>
        <mxCell id="hf4EOH9nCz6FYehoyxFz-88" value="[B1.SoC = B1.Maxcharge] stopChanging()" style="edgeLabel;html=1;align=center;verticalAlign=middle;resizable=0;points=[];labelBackgroundColor=none;" vertex="1" connectable="0" parent="hf4EOH9nCz6FYehoyxFz-87">
          <mxGeometry x="-0.0214" relative="1" as="geometry">
            <mxPoint y="-10" as="offset" />
          </mxGeometry>
        </mxCell>
        <mxCell id="hf4EOH9nCz6FYehoyxFz-92" style="edgeStyle=orthogonalEdgeStyle;rounded=0;orthogonalLoop=1;jettySize=auto;html=1;entryX=0.022;entryY=0.019;entryDx=0;entryDy=0;entryPerimeter=0;exitX=0.996;exitY=0.544;exitDx=0;exitDy=0;exitPerimeter=0;endArrow=block;endFill=1;" edge="1" parent="hf4EOH9nCz6FYehoyxFz-84" source="hf4EOH9nCz6FYehoyxFz-57" target="hf4EOH9nCz6FYehoyxFz-61">
          <mxGeometry relative="1" as="geometry" />
        </mxCell>
        <mxCell id="hf4EOH9nCz6FYehoyxFz-94" value="[B1.SoC = B1.MaxCharge] getSoC()" style="edgeLabel;html=1;align=center;verticalAlign=middle;resizable=0;points=[];labelBackgroundColor=none;" vertex="1" connectable="0" parent="hf4EOH9nCz6FYehoyxFz-92">
          <mxGeometry x="0.0107" y="1" relative="1" as="geometry">
            <mxPoint x="-19" y="-10" as="offset" />
          </mxGeometry>
        </mxCell>
        <mxCell id="hf4EOH9nCz6FYehoyxFz-93" style="edgeStyle=orthogonalEdgeStyle;rounded=0;orthogonalLoop=1;jettySize=auto;html=1;entryX=0.022;entryY=0.979;entryDx=0;entryDy=0;entryPerimeter=0;endArrow=block;endFill=1;" edge="1" parent="hf4EOH9nCz6FYehoyxFz-84" source="hf4EOH9nCz6FYehoyxFz-57" target="hf4EOH9nCz6FYehoyxFz-61">
          <mxGeometry relative="1" as="geometry">
            <Array as="points">
              <mxPoint x="518" y="253.36046511627907" />
            </Array>
          </mxGeometry>
        </mxCell>
        <mxCell id="hf4EOH9nCz6FYehoyxFz-95" value="[B1.SoC = B1.MaxCharge and&lt;div&gt;B2.SoC = B2.MaxCharge] startCharging()&lt;/div&gt;" style="edgeLabel;html=1;align=left;verticalAlign=middle;resizable=0;points=[];labelBackgroundColor=none;" vertex="1" connectable="0" parent="hf4EOH9nCz6FYehoyxFz-93">
          <mxGeometry x="0.025" y="1" relative="1" as="geometry">
            <mxPoint x="-111" y="-18" as="offset" />
          </mxGeometry>
        </mxCell>
        <mxCell id="hf4EOH9nCz6FYehoyxFz-103" value="B1-Charging" style="shape=umlFrame;whiteSpace=wrap;html=1;pointerEvents=0;width=80;height=23;" vertex="1" parent="1">
          <mxGeometry x="130" y="3507" width="600" height="183" as="geometry" />
        </mxCell>
        <mxCell id="hf4EOH9nCz6FYehoyxFz-110" value="B2-Charging" style="shape=umlFrame;whiteSpace=wrap;html=1;pointerEvents=0;width=80;height=23;" vertex="1" parent="1">
          <mxGeometry x="130" y="3697" width="600" height="103" as="geometry" />
        </mxCell>
        <mxCell id="hf4EOH9nCz6FYehoyxFz-112" value="" style="html=1;points=[];perimeter=orthogonalPerimeter;rounded=0;shadow=0;comic=0;labelBackgroundColor=none;strokeWidth=1;fontFamily=Verdana;fontSize=12;align=center;" vertex="1" parent="1">
          <mxGeometry x="445" y="3830" width="10" height="130" as="geometry" />
        </mxCell>
        <mxCell id="hf4EOH9nCz6FYehoyxFz-113" value="" style="html=1;points=[];perimeter=orthogonalPerimeter;rounded=0;shadow=0;comic=0;labelBackgroundColor=none;strokeWidth=1;fontFamily=Verdana;fontSize=12;align=center;" vertex="1" parent="1">
          <mxGeometry x="215" y="3830" width="10" height="50" as="geometry" />
        </mxCell>
        <mxCell id="hf4EOH9nCz6FYehoyxFz-114" value="" style="html=1;points=[];perimeter=orthogonalPerimeter;rounded=0;shadow=0;comic=0;labelBackgroundColor=none;strokeWidth=1;fontFamily=Verdana;fontSize=12;align=center;" vertex="1" parent="1">
          <mxGeometry x="680" y="3900" width="10" height="60" as="geometry" />
        </mxCell>
        <mxCell id="hf4EOH9nCz6FYehoyxFz-115" value="" style="html=1;points=[[0,0,0,0,5],[0,1,0,0,-5],[1,0,0,0,5],[1,1,0,0,-5]];perimeter=orthogonalPerimeter;outlineConnect=0;targetShapes=umlLifeline;portConstraint=eastwest;newEdgeStyle={&quot;curved&quot;:0,&quot;rounded&quot;:0};" vertex="1" parent="1">
          <mxGeometry x="445" y="4020" width="10" height="60" as="geometry" />
        </mxCell>
        <mxCell id="hf4EOH9nCz6FYehoyxFz-116" value="" style="html=1;points=[[0,0,0,0,5],[0,1,0,0,-5],[1,0,0,0,5],[1,1,0,0,-5]];perimeter=orthogonalPerimeter;outlineConnect=0;targetShapes=umlLifeline;portConstraint=eastwest;newEdgeStyle={&quot;curved&quot;:0,&quot;rounded&quot;:0};" vertex="1" parent="1">
          <mxGeometry x="680" y="4020" width="10" height="60" as="geometry" />
        </mxCell>
        <mxCell id="hf4EOH9nCz6FYehoyxFz-117" value="" style="endArrow=block;endFill=1;endSize=6;html=1;rounded=0;exitX=1;exitY=0;exitDx=0;exitDy=5;exitPerimeter=0;entryX=0;entryY=0;entryDx=0;entryDy=5;entryPerimeter=0;strokeColor=default;align=center;verticalAlign=middle;fontFamily=Helvetica;fontSize=11;fontColor=default;labelBackgroundColor=default;" edge="1" parent="1" source="hf4EOH9nCz6FYehoyxFz-115" target="hf4EOH9nCz6FYehoyxFz-116">
          <mxGeometry width="160" relative="1" as="geometry">
            <mxPoint x="460" y="4050" as="sourcePoint" />
            <mxPoint x="620" y="4050" as="targetPoint" />
          </mxGeometry>
        </mxCell>
        <mxCell id="hf4EOH9nCz6FYehoyxFz-118" value="getSoC()" style="edgeLabel;html=1;align=center;verticalAlign=middle;resizable=0;points=[];labelBackgroundColor=none;" vertex="1" connectable="0" parent="hf4EOH9nCz6FYehoyxFz-117">
          <mxGeometry x="0.0123" y="1" relative="1" as="geometry">
            <mxPoint y="-8" as="offset" />
          </mxGeometry>
        </mxCell>
        <mxCell id="hf4EOH9nCz6FYehoyxFz-119" value="" style="endArrow=block;endFill=1;endSize=6;html=1;rounded=0;exitX=1;exitY=1;exitDx=0;exitDy=-5;exitPerimeter=0;entryX=0;entryY=1;entryDx=0;entryDy=-5;entryPerimeter=0;strokeColor=default;align=center;verticalAlign=middle;fontFamily=Helvetica;fontSize=11;fontColor=default;labelBackgroundColor=default;" edge="1" parent="1" source="hf4EOH9nCz6FYehoyxFz-115" target="hf4EOH9nCz6FYehoyxFz-116">
          <mxGeometry width="160" relative="1" as="geometry">
            <mxPoint x="460" y="4070" as="sourcePoint" />
            <mxPoint x="620" y="4070" as="targetPoint" />
          </mxGeometry>
        </mxCell>
        <mxCell id="hf4EOH9nCz6FYehoyxFz-120" value="[B2,SoC = 0] stopSupplying()" style="edgeLabel;html=1;align=center;verticalAlign=middle;resizable=0;points=[];labelBackgroundColor=none;" vertex="1" connectable="0" parent="hf4EOH9nCz6FYehoyxFz-119">
          <mxGeometry x="-0.0074" relative="1" as="geometry">
            <mxPoint y="-9" as="offset" />
          </mxGeometry>
        </mxCell>
        <mxCell id="hf4EOH9nCz6FYehoyxFz-121" style="edgeStyle=orthogonalEdgeStyle;rounded=0;orthogonalLoop=1;jettySize=auto;html=1;entryX=0.933;entryY=0.027;entryDx=0;entryDy=0;entryPerimeter=0;exitX=-0.041;exitY=0.006;exitDx=0;exitDy=0;exitPerimeter=0;endArrow=block;endFill=1;" edge="1" parent="1" source="hf4EOH9nCz6FYehoyxFz-112" target="hf4EOH9nCz6FYehoyxFz-113">
          <mxGeometry relative="1" as="geometry">
            <Array as="points">
              <mxPoint x="335" y="3831" />
            </Array>
          </mxGeometry>
        </mxCell>
        <mxCell id="hf4EOH9nCz6FYehoyxFz-122" value="getSoC()" style="edgeLabel;html=1;align=center;verticalAlign=middle;resizable=0;points=[];labelBackgroundColor=none;" vertex="1" connectable="0" parent="hf4EOH9nCz6FYehoyxFz-121">
          <mxGeometry x="-0.0229" relative="1" as="geometry">
            <mxPoint x="1" y="-9" as="offset" />
          </mxGeometry>
        </mxCell>
        <mxCell id="hf4EOH9nCz6FYehoyxFz-123" style="edgeStyle=orthogonalEdgeStyle;rounded=0;orthogonalLoop=1;jettySize=auto;html=1;entryX=-0.056;entryY=0.338;entryDx=0;entryDy=0;entryPerimeter=0;endArrow=none;endFill=0;startArrow=block;startFill=1;" edge="1" parent="1" target="hf4EOH9nCz6FYehoyxFz-112">
          <mxGeometry relative="1" as="geometry">
            <mxPoint x="225" y="3874" as="sourcePoint" />
            <Array as="points" />
          </mxGeometry>
        </mxCell>
        <mxCell id="hf4EOH9nCz6FYehoyxFz-124" value="[B1.SoC = 0] stopSupplying()" style="edgeLabel;html=1;align=center;verticalAlign=middle;resizable=0;points=[];labelBackgroundColor=none;" vertex="1" connectable="0" parent="hf4EOH9nCz6FYehoyxFz-123">
          <mxGeometry x="-0.0214" relative="1" as="geometry">
            <mxPoint y="-10" as="offset" />
          </mxGeometry>
        </mxCell>
        <mxCell id="hf4EOH9nCz6FYehoyxFz-125" style="edgeStyle=orthogonalEdgeStyle;rounded=0;orthogonalLoop=1;jettySize=auto;html=1;entryX=0.022;entryY=0.019;entryDx=0;entryDy=0;entryPerimeter=0;exitX=0.996;exitY=0.544;exitDx=0;exitDy=0;exitPerimeter=0;endArrow=block;endFill=1;" edge="1" parent="1" source="hf4EOH9nCz6FYehoyxFz-112" target="hf4EOH9nCz6FYehoyxFz-114">
          <mxGeometry relative="1" as="geometry" />
        </mxCell>
        <mxCell id="hf4EOH9nCz6FYehoyxFz-126" value="[B1.SoC = 0] getSoC()" style="edgeLabel;html=1;align=center;verticalAlign=middle;resizable=0;points=[];labelBackgroundColor=none;" vertex="1" connectable="0" parent="hf4EOH9nCz6FYehoyxFz-125">
          <mxGeometry x="0.0107" y="1" relative="1" as="geometry">
            <mxPoint x="-19" y="-10" as="offset" />
          </mxGeometry>
        </mxCell>
        <mxCell id="hf4EOH9nCz6FYehoyxFz-127" style="edgeStyle=orthogonalEdgeStyle;rounded=0;orthogonalLoop=1;jettySize=auto;html=1;entryX=0.022;entryY=0.979;entryDx=0;entryDy=0;entryPerimeter=0;endArrow=block;endFill=1;" edge="1" parent="1" source="hf4EOH9nCz6FYehoyxFz-112" target="hf4EOH9nCz6FYehoyxFz-114">
          <mxGeometry relative="1" as="geometry">
            <Array as="points">
              <mxPoint x="568" y="3959" />
            </Array>
          </mxGeometry>
        </mxCell>
        <mxCell id="hf4EOH9nCz6FYehoyxFz-128" value="[B1.SoC = 0 and&amp;nbsp;&lt;span style=&quot;background-color: transparent; color: light-dark(rgb(0, 0, 0), rgb(255, 255, 255));&quot;&gt;B2.SoC &amp;gt;0]&amp;nbsp;&lt;/span&gt;&lt;span style=&quot;text-align: center;&quot;&gt;stopSupplying&lt;/span&gt;&lt;span style=&quot;background-color: transparent; color: light-dark(rgb(0, 0, 0), rgb(255, 255, 255));&quot;&gt;()&lt;/span&gt;" style="edgeLabel;html=1;align=left;verticalAlign=middle;resizable=0;points=[];labelBackgroundColor=none;" vertex="1" connectable="0" parent="hf4EOH9nCz6FYehoyxFz-127">
          <mxGeometry x="0.025" y="1" relative="1" as="geometry">
            <mxPoint x="-115" y="-12" as="offset" />
          </mxGeometry>
        </mxCell>
        <mxCell id="hf4EOH9nCz6FYehoyxFz-129" value="B1-Supplying" style="shape=umlFrame;whiteSpace=wrap;html=1;pointerEvents=0;width=80;height=23;" vertex="1" parent="1">
          <mxGeometry x="130" y="3807" width="600" height="183" as="geometry" />
        </mxCell>
        <mxCell id="hf4EOH9nCz6FYehoyxFz-130" value="B2-Supplying" style="shape=umlFrame;whiteSpace=wrap;html=1;pointerEvents=0;width=80;height=23;" vertex="1" parent="1">
          <mxGeometry x="130" y="3997" width="600" height="103" as="geometry" />
        </mxCell>
      </root>
    </mxGraphModel>
  </diagram>
</mxfile>
